<?xml version="1.0" encoding="utf-8"?>
<!-- Generator: Adobe Illustrator 15.0.0, SVG Export Plug-In . SVG Version: 6.00 Build 0)  -->
<!DOCTYPE svg PUBLIC "-//W3C//DTD SVG 1.1//EN" "http://www.w3.org/Graphics/SVG/1.1/DTD/svg11.dtd">
<svg version="1.1" id="Layer_1" xmlns="http://www.w3.org/2000/svg" xmlns:xlink="http://www.w3.org/1999/xlink" x="0px" y="0px"
	 width="831.818px" height="611.991px" viewBox="0 0 831.818 611.991" enable-background="new 0 0 831.818 611.991"
	 xml:space="preserve">
<line fill="none" stroke="#1666A0" stroke-miterlimit="10" x1="638.521" y1="28.249" x2="638.521" y2="413.208"/>
<line fill="none" stroke="#1666A0" stroke-miterlimit="10" x1="638.521" y1="413.208" x2="13.853" y2="413.208"/>
<rect x="104.077" y="11.539" fill="none" width="306.087" height="45.217"/>
<text transform="matrix(1 0 0 1 104.0771 45.8105)" fill="#1666A0" font-family="'HelveticaNeue'" font-size="48">What I can Do</text>
<rect x="649.636" y="325.555" fill="none" width="170.436" height="31.305"/>
<text transform="matrix(1 0 0 1 649.6367 351.2583)" fill="#1666A0" font-family="'HelveticaNeue'" font-size="36">- Beginner</text>
<rect x="649.637" y="253.555" fill="none" width="151.306" height="31.305"/>
<text transform="matrix(1 0 0 1 649.6367 279.2583)" fill="#1666A0" font-family="'HelveticaNeue'" font-size="36">- Familiar</text>
<rect x="649.637" y="181.555" fill="none" width="176.69" height="31.305"/>
<text transform="matrix(1 0 0 1 649.6367 207.2583)" fill="#1666A0" font-family="'HelveticaNeue'" font-size="36">- Proficient</text>
<rect x="649.636" y="109.555" fill="none" width="128.696" height="31.305"/>
<text transform="matrix(1 0 0 1 649.6357 135.2583)" fill="#1666A0" font-family="'HelveticaNeue'" font-size="36">- Expert</text>
<rect x="649.636" y="37.555" fill="none" width="136.521" height="31.305"/>
<text transform="matrix(1 0 0 1 649.6348 63.2583)" fill="#1666A0" font-family="'HelveticaNeue'" font-size="36">- Master</text>
<g>
	<rect x="28.53" y="411.99" fill="none" width="24.913" height="193.044"/>
	
		<text transform="matrix(4.489659e-11 -1 1 4.489659e-11 45.6655 579.6353)" fill="#1666A0" font-family="'HelveticaNeue'" font-size="24">HTML &amp; CSS</text>
</g>
<g>
	<rect x="136.665" y="411.719" fill="none" width="24.913" height="193.044"/>
	
		<text transform="matrix(4.489659e-11 -1 1 4.489659e-11 153.8008 580.9243)" fill="#1666A0" font-family="'HelveticaNeue'" font-size="24">Programming</text>
</g>
<g>
	<rect x="244.665" y="411.99" fill="none" width="24.913" height="193.044"/>
	
		<text transform="matrix(4.489659e-11 -1 1 4.489659e-11 261.8008 577.6313)" fill="#1666A0" font-family="'HelveticaNeue'" font-size="24">Photography</text>
</g>
<g>
	<rect x="460.664" y="411.99" fill="none" width="24.913" height="193.044"/>
	
		<text transform="matrix(4.489659e-11 -1 1 4.489659e-11 477.7998 594.0591)" fill="#1666A0" font-family="'HelveticaNeue'" font-size="24">Creative Writing</text>
</g>
<g>
	<rect x="352.665" y="411.99" fill="none" width="24.913" height="193.044"/>
	
		<text transform="matrix(4.489659e-11 -1 1 4.489659e-11 369.8008 591.4067)" fill="#1666A0" font-family="'HelveticaNeue'" font-size="24">Graphic Design</text>
</g>
<g>
	<rect x="569.839" y="411.584" fill="none" width="24.913" height="193.044"/>
	
		<text transform="matrix(4.489659e-11 -1 1 4.489659e-11 586.9746 561.9009)" fill="#1666A0" font-family="'HelveticaNeue'" font-size="24">Animation</text>
</g>
<rect x="13.986" y="125.208" fill="#AD2A29" width="54" height="288"/>
<rect x="122.121" y="159.73" fill="#AD2A29" width="54" height="252.869"/>
<rect x="230.121" y="228.512" fill="#AD2A29" width="54" height="184.087"/>
<rect x="337.643" y="197.073" fill="#AD2A29" width="54" height="215.392"/>
<rect x="446.121" y="125.817" fill="#AD2A29" width="54" height="286.647"/>
<rect x="554.121" y="304.768" fill="#AD2A29" width="54" height="107.831"/>
<line fill="none" stroke="#27AAE1" stroke-miterlimit="10" x1="13.025" y1="197.208" x2="68.677" y2="197.208"/>
<line fill="none" stroke="#27AAE1" stroke-miterlimit="10" x1="12.89" y1="269.208" x2="68.542" y2="269.208"/>
<line fill="none" stroke="#27AAE1" stroke-miterlimit="10" x1="12.2" y1="341.208" x2="67.851" y2="341.208"/>
<line fill="none" stroke="#27AAE1" stroke-miterlimit="10" x1="122.15" y1="197.208" x2="175.984" y2="197.208"/>
<line fill="none" stroke="#27AAE1" stroke-miterlimit="10" x1="122.316" y1="269.208" x2="175.953" y2="269.208"/>
<line fill="none" stroke="#27AAE1" stroke-miterlimit="10" x1="122.15" y1="341.208" x2="175.786" y2="341.208"/>
<line fill="none" stroke="#27AAE1" stroke-miterlimit="10" x1="230.121" y1="269.208" x2="284.154" y2="269.208"/>
<line fill="none" stroke="#27AAE1" stroke-miterlimit="10" x1="230.153" y1="341.208" x2="284.154" y2="341.208"/>
<line fill="none" stroke="#27AAE1" stroke-miterlimit="10" x1="337.654" y1="269.208" x2="391.818" y2="269.208"/>
<line fill="none" stroke="#27AAE1" stroke-miterlimit="10" x1="337.654" y1="341.208" x2="391.486" y2="341.208"/>
<line fill="none" stroke="#27AAE1" stroke-miterlimit="10" x1="446.151" y1="197.208" x2="499.952" y2="197.208"/>
<line fill="none" stroke="#27AAE1" stroke-miterlimit="10" x1="446.151" y1="269.208" x2="499.985" y2="269.208"/>
<line fill="none" stroke="#27AAE1" stroke-miterlimit="10" x1="446.316" y1="341.208" x2="499.952" y2="341.208"/>
<line fill="none" stroke="#27AAE1" stroke-miterlimit="10" x1="554.15" y1="341.208" x2="607.985" y2="341.208"/>
<line fill="none" stroke="#27AAE1" stroke-miterlimit="10" x1="41.121" y1="125.682" x2="41.121" y2="411.584"/>
<line fill="none" stroke="#27AAE1" stroke-miterlimit="10" x1="473.121" y1="126.072" x2="473.121" y2="411.975"/>
<line fill="none" stroke="#27AAE1" stroke-miterlimit="10" x1="149.121" y1="159.73" x2="149.121" y2="412.599"/>
<line fill="none" stroke="#27AAE1" stroke-miterlimit="10" x1="257.121" y1="228.512" x2="257.121" y2="412.599"/>
<line fill="none" stroke="#27AAE1" stroke-miterlimit="10" x1="365.121" y1="197.208" x2="365.121" y2="411.99"/>
<line fill="none" stroke="#27AAE1" stroke-miterlimit="10" x1="581.121" y1="304.92" x2="581.121" y2="412.6"/>
</svg>
