<?xml version="1.0" encoding="utf-8"?>
<!-- Generator: Adobe Illustrator 15.0.0, SVG Export Plug-In . SVG Version: 6.00 Build 0)  -->
<!DOCTYPE svg PUBLIC "-//W3C//DTD SVG 1.1//EN" "http://www.w3.org/Graphics/SVG/1.1/DTD/svg11.dtd">
<svg version="1.1" id="Layer_1" xmlns="http://www.w3.org/2000/svg" xmlns:xlink="http://www.w3.org/1999/xlink" x="0px" y="0px"
	 width="431.746px" height="216.667px" viewBox="0 0 431.746 216.667" enable-background="new 0 0 431.746 216.667"
	 xml:space="preserve">
<g>
	<path fill-rule="evenodd" clip-rule="evenodd" fill="#FFFFFF" d="M267.699,20.726c3.577-1.733,9.107-0.179,9.752,3.047
		C275.473,23.909,271.565,20.729,267.699,20.726z"/>
	<path fill-rule="evenodd" clip-rule="evenodd" fill="#FFFFFF" d="M253.68,22.554c-11.228,0.761-16.035,7.942-24.994,10.973
		C235.098,28.741,243.153,19.167,253.68,22.554z"/>
	<path fill-rule="evenodd" clip-rule="evenodd" fill="#FFFFFF" d="M353.648,46.937c-4.086-2.823-12.459-1.357-14.63-6.096
		c-1.96,0.885-1.597,4.09-2.438,6.096c-5.135,3.603-6.043,11.433-9.144,17.068c2.273,1.968,2.48-2.032,4.877-1.829
		c-1.211-8.525,3.988-10.642,6.095-15.849c2.041,1.414,5.615,1.293,9.145,1.22c4.883,5.265,10.626,12.907,6.704,21.334
		c-1.21,2.603-5.016,4.583-6.704,7.925c-1.754,3.463-2.134,7.816-4.876,10.362c6.1,0.954,4.999-10.394,9.752-12.801
		c13.092-4.111,15.554,21.617,9.753,28.649c-1.604,1.947-4.656,3.672-6.704,6.095c-7.317,8.649-9.016,16.602-20.726,10.363
		c-4.065-4.063-0.557-15.699-4.876-19.506c6.855-0.557,10.048,2.55,12.801,6.097c2.164-1.838,0.215-4.11,1.217-6.706
		c3.682-1.805,9.268-1.707,10.363-6.095c-3.433,0.319-8.971,3.555-13.411,4.876c-2.696-1.322,3.653-3.48,2.438-7.314
		c-3.146,0.917-3.101,5.026-6.095,6.095c-3.658,0-7.313,0-10.973,0c7.398-11.622,17.638-25.095,13.411-44.499
		c-4.308,0.737-1.284,4.723-1.22,7.314c0.345,13.773-6.174,26.604-13.409,34.136c-0.333-8.865,0.35-16.716,6.704-18.896
		c-5.816-4.343-13.372-6.948-14.63-15.848c-2.368,0.438-2.678,0.171-4.269-2.439c-1.937,8.119,8.453,14.242,14.632,18.288
		c-4.483,3.748-5.979,13.388-4.269,21.334c-13.54-5.149-14.389,33.671-9.142,41.452c1.862,2.763,5.93,4.433,9.752,4.266
		c0.035,12.159,12.246,12.139,23.164,13.412c-5.479,4.536-14.276,9.225-23.774,6.096c-6.305-7.309-11.382-15.844-18.896-21.946
		c1.646-3.232,3.101-6.653,2.438-12.191c-0.454-1.374-3.421-0.238-4.876-0.61c-0.072,2.976,0.327,6.424-0.61,8.535
		c-2.247,1.843-5.786,2.316-8.534,0.61c-1.722-8.834-2.572-26.254,0.609-34.137c6.643-2.729,9.917,2.498,8.535,9.753
		c0.984,0.994,2.551-0.543,4.876,0c0.725-6.82-0.88-11.311-4.269-14.021c2.801-11.72-7.773-20.543-5.483-29.868
		c1.026-4.183,6.354-5.525,7.313-10.973c4.122-2.724,8.445-5.277,12.801-7.923c4.413-2.683,9.322-4.109,13.41-7.315
		c-1.859-1.421-4.983,1.087-7.315,1.219c2.471-3.016,5.036-5.938,6.708-9.752C337.596,37.794,351.704,36.284,353.648,46.937z"/>
	<path fill-rule="evenodd" clip-rule="evenodd" fill="#00AAE8" d="M252.459,37.184c3.316,3.016-1.168,10.71,4.877,12.191
		c3.939,0.965,6.963-2.868,10.363-4.876c3.076,1.356-1.342,2.759-0.611,5.486c0.747,4.131,5.954,3.802,6.708,7.923
		c-8.782-1.932-20.116-4.611-24.992,3.048c-1.206,1.891-3.237,8.669-3.049,12.191c0.419,7.893,11.963,15.737,5.487,25.602
		c4.635,12.124,6.456,54-12.801,40.231c-0.365,5.529,0.754,12.541-0.611,17.07c-1.424,0-2.845,0-4.267,0c0-19.304,0-38.606,0-57.91
		c-0.576-2.203,2.399-0.851,3.657-1.219c-0.938-8.409-3.954-14.74-12.802-15.239c0.824,2.771,4.239,11.065,1.828,17.067
		c-1.421,0-2.842,0-4.266,0c6.034-18.501-17.921-19.592-14.021-2.438c1.688,7.419,15.628,15.374,18.286,24.385
		c3.327,11.265-2.909,26.971-16.457,20.723c-5.213-2.403-8.335-8.741-6.096-20.115c1.422,0,2.844,0,4.267,0
		c-5.957,19.902,18.521,21.539,14.021,1.831c-1.9-8.33-30.825-27.43-15.239-41.452c3.675-3.305,11.097-0.556,18.898-5.486
		c0.44-3.621-1.092-9.217,1.217-10.972c2.63,2.596,0.705,6.938,1.221,9.753c1.26,6.909,7.855,10.469,10.363,15.85
		c0.299,2.137,0.907,3.967,0.607,6.704c3.222-0.826,7.513-2.122,10.362,0c5.444-8.139-5.243-13.604-6.704-20.724
		c-1.228-5.983,4.358-11.718,3.048-16.458c-1.864-6.758-18.045-5.888-23.164-0.61c-3.993,4.118-2.242,9.371-6.097,13.41
		c-2.324-1.478,0.53-4.57,0-7.314c-0.721-3.746-4.022-4.285-3.656-6.705c6.65-2.646,14.527-2.922,19.507-6.706
		c4.454-3.386,2.311-8.93,6.097-13.412c-1.493,9.102,3.119,16.385,9.752,14.021C253.225,51.239,250.129,42.587,252.459,37.184z
		 M239.658,102.408c0.038,7.709-5.242,30.486,1.221,34.135c12.259,6.922,8.27-28.78,6.095-34.745
		C244.811,100.808,241.149,100.992,239.658,102.408z"/>
	<path fill-rule="evenodd" clip-rule="evenodd" fill="#FFFFFF" d="M214.057,46.328c-3.523,4.638-8.23,13.281-12.191,19.506
		c-3.11,0.954-6.073,2.053-7.313,4.876C194.114,58.08,204.173,50.667,214.057,46.328z"/>
	<path fill-rule="evenodd" clip-rule="evenodd" fill="#FFFFFF" d="M400.586,76.196c-0.752,3.223-1.342-3.134-3.658-0.609
		c3.028,4.694,3.852,11.59,4.269,18.896c2.344-1.823,2.306-11.81,0-14.63c1.759-2.421,2.383-6.325,0.607-9.143
		c4.565,2.063,4.722,5.632,6.097,12.191c0.662,3.164,2.864,6.15,3.048,7.925c0.486,4.741-2.85,8.69,0,12.19
		c1.59,1.956,3.121,0.802,5.487,2.438c4.239,2.933,7.961,8.556,4.266,14.02c-1.823-1.833-1.461-5.854-3.658-7.314
		c-2.44,4.211,6.699,14.42,0,19.505c-2.974-5.157-10.629-8.87-16.457-9.143c-4.462-7.933-1.392-23.4-15.239-21.945
		c0.26-8.58-8.356-10.886-6.097-19.506c-8.068,5.445,6.203,14.485,3.658,23.773c-0.248,0.906-1.278,3.5-3.658,3.657
		c-7.28,0.48-1.067-15.114-12.801-11.581c1.722-5.08-0.184-11.521,0-17.069c3.346-2.952,8.572-4.025,11.583-7.314
		c2.713,6.227,7.316,10.563,11.58,15.24c-2.144,5.51,3.178,5.956,2.438,9.752c2.782-0.016,2.344-5.995,0-6.095
		c8.043-11.916-4.774-27.113-12.191-31.087c2.372,8.42,13.975,12.83,12.801,26.821c-6.43-8.944-19.534-16.567-15.238-32.308
		c-4.763-0.716-3.309,5.695-5.486,8.534c-3.318,4.325-9.41,4.241-15.24,6.095c2.802-5.042-0.287-10.932,0-17.067
		c0.593-0.017,0.475-0.747,0.611-1.219c6.022-5.61,11.925-1.373,18.287,1.219c7.424,3.023,7.023,3.326,12.19,8.533
		C393.209,66.426,400.807,68.808,400.586,76.196z M404.852,104.237c-1.284,2.169-6.61,0.297-6.704,3.658
		c11.035-3.071,8.887,10.157,15.239,9.752c-7.066-7.163-5.396-21.969-6.705-33.527c-0.78-0.033-0.845-0.781-1.83-0.61
		C405.123,88.399,405.931,97.497,404.852,104.237z"/>
	<path fill-rule="evenodd" clip-rule="evenodd" fill="#FFFFFF" d="M373.763,64.005c1.144,1.703,1.156,4.535,2.441,6.096
		c-0.854,5.448-8.609,3.989-10.362,8.534c-2.361-2.516-3.595-6.161-7.926-6.704C363.457,69.546,370.762,68.926,373.763,64.005z"/>
	<path fill-rule="evenodd" clip-rule="evenodd" fill="#FFFFFF" d="M207.961,64.614c1.482,2.521-1.09,6.207-2.438,7.924
		c-4.64-0.171-8.031,0.909-9.753,3.658c0.071,6.648,2.979,15.171-0.609,20.115c-6.092-4.071-5.528-17.204-1.828-23.164
		C196.634,67.83,204.351,67.858,207.961,64.614z"/>
	<path fill-rule="evenodd" clip-rule="evenodd" fill="#FFFFFF" d="M191.502,68.882c-1.268,7.643-4.723,23.251,1.83,29.259
		c-4.263,4.272-3.549,13.519-9.753,15.848c-2.826-8.146-0.42-21.524-1.22-31.698C185.82,78.235,185.495,70.392,191.502,68.882z"/>
	<path fill-rule="evenodd" clip-rule="evenodd" fill="#00AAE8" d="M25.091,79.853c3.445,17.503,6.823,38.261,10.362,53.644
		c3.634-17.703,6.772-35.898,10.363-53.644c2.438,0,4.876,0,7.314,0c-0.406,20.32,0.813,42.265-0.61,61.566
		c-1.016,0-2.031,0-3.047,0c-2.833-14.175-0.391-36.982-1.219-51.812c-4.214,16.714-5.823,36.035-10.973,51.812
		c-1.219,0-2.438,0-3.657,0c-4.937-15.013-7.465-35.557-10.363-50.592c-1.827,15.442,0.609,35.15-1.219,50.592
		c-1.016,0-2.032,0-3.047,0c-2.811-18.037-0.431-41.479-1.219-61.566C20.214,79.853,22.652,79.853,25.091,79.853z"/>
	<path fill-rule="evenodd" clip-rule="evenodd" fill="#00AAE8" d="M104.335,80.463c0,1.016,0,2.032,0,3.047
		c-0.597,2.655-5.959,0.544-8.535,1.219c-0.405,18.694,0.812,39.012-0.608,56.689c-1.016,0-2.033,0-3.048,0
		c-2.81-16.112-0.433-37.604-1.22-56.079c-1.643-1.406-5.879-0.218-8.534-0.611c0-1.625,0-3.25,0-4.876
		C89.504,80.258,98.235,79.043,104.335,80.463z"/>
	<path fill-rule="evenodd" clip-rule="evenodd" fill="#00AAE8" d="M113.478,79.853c2.794,3.709,0.445,12.561,1.219,18.288
		c20.437-11.786,15.132,26.885,14.631,43.278c-1.017,0-2.032,0-3.049,0c-5.176-5.635,4.5-38.99-5.484-40.231
		c-11.983-1.488-3.063,32.673-6.706,40.231c-1.017,0-2.031,0-3.049,0c-2.809-17.643-0.431-40.674-1.219-60.346
		C110.382,80.008,111.727,79.727,113.478,79.853z"/>
	<path fill-rule="evenodd" clip-rule="evenodd" fill="#00AAE8" d="M404.852,83.511c0.985-0.171,1.05,0.577,1.83,0.61
		c1.309,11.558-0.361,26.364,6.705,33.527c-6.353,0.404-4.204-12.823-15.239-9.752c0.094-3.361,5.42-1.489,6.704-3.658
		C405.931,97.497,405.123,88.399,404.852,83.511z"/>
	<path fill-rule="evenodd" clip-rule="evenodd" fill="#FFFFFF" d="M410.339,84.121c6.478-0.582,6.391,10.673,6.097,18.896
		C407.432,101.962,416.339,88.972,410.339,84.121z"/>
	<path fill-rule="evenodd" clip-rule="evenodd" fill="#00AAE8" d="M137.251,85.34c1.627,0,3.251,0,4.877,0c0,2.031,0,4.063,0,6.095
		c-1.626,0-3.25,0-4.877,0C137.251,89.404,137.251,87.371,137.251,85.34z"/>
	<path fill-rule="evenodd" clip-rule="evenodd" fill="#00AAE8" d="M169.559,141.419c-1.016,0-2.031,0-3.048,0
		c-5.21-5.395,5.257-42.23-7.314-40.231c-10.06,1.6-0.799,31.24-4.877,40.231c-1.017,0-2.032,0-3.048,0
		c-2.835-12.404-0.414-30.064-1.219-44.497c2.809-0.575,4.022,0.447,4.267,2.438C175.475,84.318,170.069,125.755,169.559,141.419z"
		/>
	<path fill-rule="evenodd" clip-rule="evenodd" fill="#00AAE8" d="M58.618,96.922c1.624,0,3.25,0,4.876,0
		c1.762,11.127,3.733,25,5.485,34.134c2.126-11.082,3.639-22.774,5.487-34.134c1.626,0,3.252,0,4.876,0
		c-4.466,13.128-4.315,38.639-9.143,51.814c-1.38,3.768-4.745,7.141-9.753,7.315c-1.938-5.005,3.43-5.149,4.876-7.924
		c5.966-11.45-7.499-36.027-6.096-49.377C58.903,98.26,58.59,97.76,58.618,96.922z"/>
	<path fill-rule="evenodd" clip-rule="evenodd" fill="#00AAE8" d="M142.128,96.922c-0.405,14.629,0.812,30.885-0.61,44.497
		c-1.016,0-2.031,0-3.047,0c-2.835-12.404-0.414-30.064-1.22-44.497C138.878,96.922,140.502,96.922,142.128,96.922z"/>
	<path fill-rule="evenodd" clip-rule="evenodd" fill="#FFFFFF" d="M357.916,123.134c5.735-1.585,12.524-7.387,15.847-13.411
		c11.449,1.245,12.22,14.299,8.535,24.381c5.946-4.606,5.393-19.862-0.61-23.771c1.176-2.486,2.845-4.471,3.659-7.316
		c6.438,0.062,9.284,3.72,10.362,9.144c-1.408,2.857-6.082-5.519-8.534-1.828c11.677,5.454,12.459,16.189,3.659,24.992
		c-6.62,6.618-19.839,8.957-28.041,10.97c-2.27-1.793-3.479-4.648-3.048-9.143c6.993-5.196,13.396-10.985,17.677-18.895
		c-8.141,5.241-12.351,18.483-28.04,16.457c-6.219-0.803-9.946-4.579-17.067-5.486c0-1.015,0-2.032,0-3.048
		c-2.297-0.466-2.914,0.744-4.877,0.61c-0.07,2.976,0.328,6.424-0.609,8.535c-2.248,1.843-5.787,2.316-8.535,0.61
		c-2.049-3.641-0.952-10.427-1.219-15.849c4.471,0,8.939,0,13.41,0c18.869,13.25,26.693-14.039,38.402-21.336
		C381.439,107.868,362.552,116.975,357.916,123.134z"/>
	<path fill-rule="evenodd" clip-rule="evenodd" fill="#FFFFFF" d="M246.974,101.798c2.175,5.965,6.164,41.667-6.095,34.745
		c-6.463-3.649-1.183-26.426-1.221-34.135C241.149,100.992,244.811,100.808,246.974,101.798z"/>
	<path fill-rule="evenodd" clip-rule="evenodd" fill="#FFFFFF" d="M327.438,103.627c0,3.861,0,7.72,0,11.582
		c-3.455,0-6.909,0-10.363,0C314.637,105.35,320.569,96.821,327.438,103.627z"/>
	<path fill-rule="evenodd" clip-rule="evenodd" fill="#FFFFFF" d="M273.796,135.935c-2.748,1.707-6.288,1.233-8.534-0.61
		c-1.03-2.426-0.479-6.432-0.611-9.753c2.567-2.515,6.65-3.512,9.146-6.097C276.239,122.641,275.194,132.58,273.796,135.935z"/>
	<path fill-rule="evenodd" clip-rule="evenodd" fill="#FFFFFF" d="M415.215,132.887c-1.53,7.409-14.74,3.14-22.555,4.266
		c-0.555-2.014,6.061-8.713,7.926-12.801C405.959,126.701,412.507,127.874,415.215,132.887z"/>
	<path fill-rule="evenodd" clip-rule="evenodd" fill="#FFFFFF" d="M355.479,137.153c-0.608,5.481,3.291,6.461,3.045,11.583
		c-5.292,7.441-21.186,2.798-29.258,2.439c-1.785-2.483-3.088-5.447-4.266-8.536c2.698-2.787,6.665-4.306,7.314-9.142
		C340.8,133.951,345.537,138.152,355.479,137.153z"/>
	<path fill-rule="evenodd" clip-rule="evenodd" fill="#FFFFFF" d="M405.463,140.812c-10.753,13.632-39.823,12.193-52.424,21.944
		c-2.197-9.036,6.348-9.798,11.582-12.191c7.641-3.495,18.081-8.569,23.774-10.973C394.992,140.442,401.669,137.626,405.463,140.812
		z"/>
	<path fill-rule="evenodd" clip-rule="evenodd" fill="#FFFFFF" d="M406.072,162.755c-17.561,2.361-28.771,14.663-47.549,14.629
		c-3.011-0.005-6.588-2.021-9.142,0.61c22.786,7.071,34.968-10.475,54.86-12.191c-1.814,11.599-4.257,22.563-14.63,25.603
		c-9.554,19.672-40.594,9.046-52.422-1.221c-0.87-2.257,1.749-2.445,1.828-4.876c0.032-1.011-1.799-3.79-1.828-3.656
		c1.131-5.018,8.171-7.622,11.581-10.363c2.648-2.129,4.14-6.044,7.314-8.535c4.958-3.887,13.545-4.033,21.336-6.097
		c12.315-3.257,21.378-8.312,29.869-12.801C407.549,147.65,408.691,158.042,406.072,162.755z"/>
	<path fill-rule="evenodd" clip-rule="evenodd" fill="#FFFFFF" d="M349.382,156.051c1.118,0.969-0.099,8.304,0,10.971
		c-1.074,3.259-4.098,3.224-6.704,5.487c-3.768,3.27-4.466,8.562-12.193,7.924c-2.587-5.541-7.92-8.333-7.923-16.457
		C333.695,164.697,343.034,162.842,349.382,156.051z"/>
	<path fill-rule="evenodd" clip-rule="evenodd" fill="#FFFFFF" d="M332.922,183.481c1.503-0.079,2.939-0.092,3.659,0.61
		c0.354,1.979-0.414,2.835-0.611,4.266C334.204,187.482,333.457,185.586,332.922,183.481z"/>
	<path fill-rule="evenodd" clip-rule="evenodd" fill="#FFFFFF" d="M14.119,0c137.76,0,275.529,0,413.287,0
		c0,71.116,0,142.233,0,213.349c-137.966,0-275.929,0-413.897,0c0-70.506,0-141.014,0-211.52C13.456,0.963,13.408,0.103,14.119,0z
		 M286.597,104.237c-2.922,13.798-1.066,46.605,15.239,36.575c5.016,1.987,6.047,5.517,9.144,9.142
		c3.191,3.738,7.058,6.434,8.534,10.363c1.065,2.845,0.582,6.507,1.827,9.752c1.39,3.625,6.072,6.421,5.487,10.974
		c6.634,7.974,10.37,14.313,19.505,18.286c5.94,2.585,13.857,5.03,18.288,5.487c16.301,1.672,16.765-5.824,26.213-12.801
		c1.602-1.186,4.444-1.59,6.094-3.049c8.931-7.895,6.572-22.707,12.801-33.526c-1.84-4.82,0.466-11.497-2.438-16.46
		c14.676-1.773,12.895-16.236,16.458-25.602c-10.62-7.535-0.239-28.547-14.021-32.916c-0.512-1.724-0.707-3.763-1.218-5.486
		c-3.941-7.378-11.65-12.644-17.067-19.507c-4.869-6.165-9.036-13.907-17.069-15.848c0-1.219,0-2.438,0-3.657
		c-5.538-6.246-17.293-6.276-23.164-12.192c-1.625,0-3.249,0-4.877,0c-6.587-10.683-25.587-8.955-37.793-14.021
		c-6.945,0.778-14.892,0.551-19.505,3.658c-9.44-7.24-26.828,0.228-32.31,6.705c-15.398-1.973-23.67,8.421-32.307,15.24
		c-5.747,1.567-8.549,6.079-12.19,9.754c-8.005,5.609-16.641,10.587-19.507,21.335c-3.166,1.303-4.955,3.984-7.925,5.486
		c-0.55,2.699-0.615,5.885-1.828,7.923c-0.809-0.63-4.076-0.022-5.485,0.61c0,20.319,0,40.637,0,60.956c1.625,0,3.252,0,4.876,0
		c0.404-7.317-0.811-16.251,0.609-22.553c4.651,0.565,4.821,6.826,6.096,10.363c1.463,4.055,3.605,8.15,4.268,12.19
		c1.625,0,3.25,0,4.877,0c-0.369-8.596-8.834-17.203-8.535-24.992c0.226-5.849,7.01-11.614,8.535-18.286
		c1.737-7.611-1.618-12.48-1.22-20.726c1.405,0.187,0.677-1.761,1.828-1.828c7.902-0.226,13.451-2.805,11.581-12.801
		c-1.317-2.012-3.79,1.35-4.266,0c1.222-10.585,13.715-15.155,21.336-20.117c11.213-7.302,31.246-30.634,48.155-14.629
		c-3.313,5.221-11.74,5.33-12.802,12.801c6.457-4.184,11.08-12.282,20.116-12.19c5.699,0.056,13.389,7.885,18.287,1.218
		c-7.556,1.353-15.835-5.36-22.554-3.047c0.19-3.06,3.51-2.993,4.267-5.487c-2.488-0.588-4.902,1.347-5.487-3.047
		c1.424-1.015,5.205,0.325,4.877-2.438c-2.89-1.797-5.475,1.229-7.314,2.438c-5.515-2.86-10.762,3.04-15.239,1.219
		c4.489-5.459,20.07-10.092,27.43-4.878c-0.727,1.915-3.363,1.92-3.656,4.268c4.147-2.274,13.305,0.199,18.288,0
		c-1.387-3.896-8.225-2.343-11.583-4.268c3.653-3.458,12.245-1.977,18.287-3.047c-0.811,3.795-6.635,5.061-6.097,9.752
		c0.412,3.567,7.334,5.042,7.317,9.144c-0.028,6.065-10.854,10.571-16.46,10.972c-0.188-1.594,0.678-5.562-1.218-3.658
		c-3.315,10.469-7.418,19.606-11.583,28.041c-1.939,3.926-3.442,9.014-7.315,10.973c-6.552-4.421-14.776-7.167-16.459-16.458
		c-4.135,16.442,26.473,14.863,17.07,36.574c-9.291-2.463-14.394,4.211-12.801,14.629c1.962,0.134,2.578-1.079,4.876-0.61
		c-2.592-11.332,7.537-12.179,9.143-6.095c3.231,12.256-9.044,10.882-13.411,16.458c-4.765,6.087-1.012,16.333,1.22,18.288
		c5.554,4.864,12.525-1.25,18.288,1.828c-3.366-12.077,1.709-32.591-3.659-42.669c-0.675-14.996,0.565-24.187,6.097-35.354
		c3.047-6.151,4.88-12.107,6.705-15.848c3.624-7.425,13.042-3.251,16.459-1.83c1.989-2.913-3.484-2.792-3.657-5.487
		c4.754-3.982,12.088-5.384,12.801-13.41c-2.922-0.462-2.176,5.919-4.267,4.268c1.915-5.638-4.87-7.129-6.704-10.974
		c2.581-11.197,15.03-5.098,22.553-3.047c7.303,1.991,17.209,1.409,17.067,7.924c-2.894,2.59-11.525-0.554-12.801,3.659
		c4.386,0.172,14.319-1.866,19.506,0.608c2.274-0.058,0.042-2.38,1.22-2.438c4.428,5.529,16.383,3.531,18.896,10.972
		c-3.592,3.113-8.59,4.822-12.802,7.316c-6.01-8.619-17.587-11.671-29.867-14.02c-0.282-2.156-2.734-2.145-2.438-4.878
		c-0.114-2.959,3.772-1.917,3.659-4.876c-7.789,1.735-12.299-2.472-17.071-5.485c-0.817,3.316-0.458,4.517-3.655,7.314
		c10.855-0.599,23.471,9.623,13.411,17.067c-0.846-2-1.965-3.727-4.878-3.657c-1.958,3.053,3.763,2.943,3.047,6.706
		c-4.764,5.013-13.323,7.159-18.287,12.801c-3.276,3.728-8.629,10.971-8.532,16.458c0.139,7.968,9.584,13.669,4.266,23.773
		C292.001,96.146,287.657,99.22,286.597,104.237z M248.193,53.032c-6.633,2.365-11.245-4.918-9.752-14.021
		c-3.786,4.482-1.643,10.026-6.097,13.412c-4.979,3.784-12.856,4.059-19.507,6.706c-0.366,2.419,2.936,2.959,3.656,6.705
		c0.53,2.745-2.324,5.836,0,7.314c3.854-4.04,2.104-9.292,6.097-13.41c5.119-5.278,21.3-6.147,23.164,0.61
		c1.311,4.741-4.275,10.475-3.048,16.458c1.461,7.12,12.148,12.585,6.704,20.724c-2.85-2.122-7.141-0.826-10.362,0
		c0.3-2.737-0.309-4.567-0.607-6.704c-2.508-5.38-9.104-8.94-10.363-15.85c-0.516-2.815,1.409-7.157-1.221-9.753
		c-2.309,1.755-0.776,7.352-1.217,10.972c-7.802,4.931-15.224,2.181-18.898,5.486c-15.586,14.021,13.339,33.122,15.239,41.452
		c4.5,19.708-19.978,18.071-14.021-1.831c-1.423,0-2.845,0-4.267,0c-2.239,11.375,0.883,17.712,6.096,20.115
		c13.548,6.249,19.784-9.458,16.457-20.723c-2.658-9.011-16.599-16.966-18.286-24.385c-3.9-17.154,20.055-16.063,14.021,2.438
		c1.424,0,2.845,0,4.266,0c2.411-6.002-1.004-14.296-1.828-17.067c8.848,0.5,11.864,6.83,12.802,15.239
		c-1.258,0.369-4.233-0.983-3.657,1.219c0,19.303,0,38.605,0,57.91c1.422,0,2.843,0,4.267,0c1.365-4.529,0.246-11.541,0.611-17.07
		c19.257,13.768,17.436-28.107,12.801-40.231c6.476-9.864-5.068-17.709-5.487-25.602c-0.188-3.522,1.843-10.301,3.049-12.191
		c4.876-7.659,16.21-4.98,24.992-3.048c-0.754-4.121-5.961-3.792-6.708-7.923c-0.73-2.727,3.688-4.13,0.611-5.486
		c-3.4,2.008-6.424,5.841-10.363,4.876c-6.045-1.48-1.561-9.175-4.877-12.191C250.129,42.587,253.225,51.239,248.193,53.032z
		 M17.776,79.853c0.788,20.086-1.592,43.529,1.219,61.566c1.016,0,2.031,0,3.047,0c1.828-15.442-0.608-35.15,1.219-50.592
		c2.898,15.036,5.426,35.579,10.363,50.592c1.219,0,2.438,0,3.657,0c5.15-15.777,6.759-35.098,10.973-51.812
		c0.829,14.83-1.614,37.637,1.219,51.812c1.016,0,2.031,0,3.047,0c1.423-19.301,0.204-41.246,0.61-61.566c-2.438,0-4.876,0-7.314,0
		c-3.59,17.746-6.729,35.941-10.363,53.644c-3.539-15.383-6.917-36.141-10.362-53.644C22.652,79.853,20.214,79.853,17.776,79.853z
		 M82.39,79.853c0,1.626,0,3.252,0,4.876c2.654,0.393,6.891-0.795,8.534,0.611c0.787,18.475-1.59,39.967,1.22,56.079
		c1.016,0,2.032,0,3.048,0c1.421-17.677,0.203-37.995,0.608-56.689c2.576-0.674,7.938,1.436,8.535-1.219c0-1.016,0-2.032,0-3.047
		C98.235,79.043,89.504,80.258,82.39,79.853z M109.82,81.073c0.788,19.672-1.59,42.704,1.219,60.346c1.018,0,2.032,0,3.049,0
		c3.643-7.558-5.277-41.719,6.706-40.231c9.984,1.241,0.309,34.596,5.484,40.231c1.017,0,2.032,0,3.049,0
		c0.501-16.393,5.806-55.063-14.631-43.278c-0.773-5.727,1.575-14.579-1.219-18.288C111.727,79.727,110.382,80.008,109.82,81.073z
		 M137.251,91.436c1.627,0,3.251,0,4.877,0c0-2.032,0-4.064,0-6.095c-1.626,0-3.25,0-4.877,0
		C137.251,87.371,137.251,89.404,137.251,91.436z M154.319,99.36c-0.244-1.991-1.458-3.013-4.267-2.438
		c0.805,14.433-1.616,32.093,1.219,44.497c1.016,0,2.031,0,3.048,0c4.078-8.991-5.183-38.631,4.877-40.231
		c12.571-1.999,2.104,34.836,7.314,40.231c1.017,0,2.032,0,3.048,0C170.069,125.755,175.475,84.318,154.319,99.36z M59.226,98.75
		c-1.403,13.35,12.062,37.927,6.096,49.377c-1.446,2.775-6.815,2.919-4.876,7.924c5.008-0.174,8.373-3.547,9.753-7.315
		c4.828-13.175,4.677-38.686,9.143-51.814c-1.624,0-3.25,0-4.876,0c-1.848,11.36-3.361,23.052-5.487,34.134
		c-1.752-9.135-3.723-23.007-5.485-34.134c-1.626,0-3.252,0-4.876,0C58.59,97.76,58.903,98.26,59.226,98.75z M137.251,96.922
		c0.806,14.433-1.615,32.093,1.22,44.497c1.016,0,2.031,0,3.047,0c1.422-13.612,0.205-29.868,0.61-44.497
		C140.502,96.922,138.878,96.922,137.251,96.922z"/>
	<path fill-rule="evenodd" clip-rule="evenodd" fill="#00AAE8" d="M298.177,96.312c5.318-10.104-4.127-15.805-4.266-23.773
		c-0.097-5.487,5.256-12.73,8.532-16.458c4.964-5.643,13.523-7.789,18.287-12.801c0.716-3.763-5.005-3.652-3.047-6.706
		c2.913-0.069,4.032,1.657,4.878,3.657c10.06-7.445-2.556-17.666-13.411-17.067c3.197-2.798,2.838-3.998,3.655-7.314
		c4.772,3.014,9.282,7.221,17.071,5.485c0.113,2.959-3.773,1.917-3.659,4.876c-0.296,2.733,2.156,2.722,2.438,4.878
		c12.28,2.349,23.857,5.401,29.867,14.02c4.212-2.494,9.21-4.203,12.802-7.316c-2.513-7.441-14.468-5.443-18.896-10.972
		c-1.178,0.058,1.055,2.38-1.22,2.438c-5.187-2.474-15.12-0.436-19.506-0.608c1.275-4.213,9.907-1.068,12.801-3.659
		c0.142-6.515-9.765-5.933-17.067-7.924c-7.522-2.051-19.972-8.15-22.553,3.047c1.834,3.845,8.619,5.335,6.704,10.974
		c2.091,1.651,1.345-4.73,4.267-4.268c-0.713,8.025-8.047,9.428-12.801,13.41c0.173,2.695,5.646,2.574,3.657,5.487
		c-3.417-1.421-12.835-5.596-16.459,1.83c-1.825,3.741-3.658,9.697-6.705,15.848c-5.531,11.167-6.771,20.358-6.097,35.354
		c5.368,10.078,0.293,30.593,3.659,42.669c-5.763-3.078-12.734,3.036-18.288-1.828c-2.231-1.955-5.984-12.201-1.22-18.288
		c4.367-5.576,16.643-4.202,13.411-16.458c-1.605-6.084-11.734-5.237-9.143,6.095c-2.298-0.469-2.914,0.744-4.876,0.61
		c-1.593-10.418,3.51-17.092,12.801-14.629c9.402-21.71-21.205-20.132-17.07-36.574c1.683,9.291,9.907,12.037,16.459,16.458
		c3.873-1.959,5.376-7.047,7.315-10.973c4.165-8.435,8.268-17.572,11.583-28.041c1.896-1.905,1.03,2.064,1.218,3.658
		c5.605-0.401,16.432-4.907,16.46-10.972c0.017-4.103-6.905-5.577-7.317-9.144c-0.538-4.691,5.286-5.958,6.097-9.752
		c-6.042,1.07-14.634-0.411-18.287,3.047c3.358,1.925,10.196,0.371,11.583,4.268c-4.983,0.199-14.141-2.274-18.288,0
		c0.293-2.348,2.93-2.353,3.656-4.268c-7.359-5.214-22.94-0.582-27.43,4.878c4.478,1.82,9.725-4.079,15.239-1.219
		c1.84-1.21,4.425-4.235,7.314-2.438c0.328,2.763-3.453,1.424-4.877,2.438c0.585,4.394,2.999,2.459,5.487,3.047
		c-0.757,2.494-4.076,2.427-4.267,5.487c6.719-2.313,14.998,4.4,22.554,3.047c-4.898,6.667-12.588-1.162-18.287-1.218
		c-9.036-0.091-13.659,8.006-20.116,12.19c1.062-7.471,9.488-7.58,12.802-12.801c-16.909-16.005-36.942,7.327-48.155,14.629
		c-7.621,4.962-20.114,9.532-21.336,20.117c0.476,1.35,2.948-2.012,4.266,0c1.87,9.996-3.679,12.575-11.581,12.801
		c-1.151,0.067-0.423,2.015-1.828,1.828c-0.398,8.246,2.957,13.115,1.22,20.726c-1.525,6.672-8.31,12.438-8.535,18.286
		c-0.299,7.789,8.166,16.396,8.535,24.992c-1.627,0-3.252,0-4.877,0c-0.662-4.04-2.805-8.135-4.268-12.19
		c-1.274-3.537-1.444-9.798-6.096-10.363c-1.42,6.302-0.205,15.236-0.609,22.553c-1.624,0-3.251,0-4.876,0
		c0-20.319,0-40.636,0-60.956c1.409-0.632,4.677-1.24,5.485-0.61c1.213-2.038,1.278-5.224,1.828-7.923
		c2.97-1.502,4.759-4.183,7.925-5.486c2.866-10.748,11.502-15.726,19.507-21.335c3.642-3.675,6.443-8.187,12.19-9.754
		c8.637-6.818,16.908-17.212,32.307-15.24c5.481-6.477,22.869-13.945,32.31-6.705c4.613-3.107,12.56-2.88,19.505-3.658
		c12.206,5.066,31.206,3.337,37.793,14.021c1.628,0,3.252,0,4.877,0c5.871,5.916,17.626,5.946,23.164,12.192
		c0,1.219,0,2.438,0,3.657c8.033,1.941,12.2,9.684,17.069,15.848c5.417,6.863,13.126,12.129,17.067,19.507
		c0.511,1.724,0.706,3.763,1.218,5.486c13.781,4.368,3.4,25.38,14.021,32.916c-3.563,9.366-1.782,23.829-16.458,25.602
		c2.903,4.963,0.598,11.64,2.438,16.46c-6.229,10.819-3.87,25.632-12.801,33.526c-1.649,1.459-4.492,1.863-6.094,3.049
		c-9.448,6.977-9.912,14.473-26.213,12.801c-4.431-0.457-12.348-2.902-18.288-5.487c-9.135-3.973-12.871-10.312-19.505-18.286
		c0.585-4.553-4.098-7.35-5.487-10.974c-1.245-3.246-0.762-6.907-1.827-9.752c-1.477-3.929-5.343-6.625-8.534-10.363
		c-3.097-3.625-4.128-7.155-9.144-9.142c-16.306,10.031-18.161-22.777-15.239-36.575C287.657,99.22,292.001,96.146,298.177,96.312z
		 M407.291,143.858c-8.491,4.489-17.554,9.544-29.869,12.801c-7.791,2.063-16.378,2.21-21.336,6.097
		c-3.175,2.49-4.666,6.406-7.314,8.535c-3.41,2.741-10.45,5.345-11.581,10.363c0.029-0.134,1.86,2.646,1.828,3.656
		c-0.079,2.431-2.698,2.619-1.828,4.876c11.828,10.267,42.868,20.893,52.422,1.221c10.373-3.039,12.815-14.004,14.63-25.603
		c-19.893,1.717-32.074,19.263-54.86,12.191c2.554-2.632,6.131-0.615,9.142-0.61c18.777,0.034,29.988-12.268,47.549-14.629
		C408.691,158.042,407.549,147.65,407.291,143.858z M277.451,23.773c-0.645-3.226-6.175-4.78-9.752-3.047
		C271.565,20.729,275.473,23.909,277.451,23.773z M228.686,33.527c8.959-3.031,13.767-10.211,24.994-10.973
		C243.153,19.167,235.098,28.741,228.686,33.527z M218.934,42.06c-0.027-0.839,0.287-1.338,0.609-1.829
		c-2.176,0.668-3.599,2.091-4.267,4.268c1.406-0.187,0.678,1.761,1.829,1.829c8.073-4.12,17.381-10.251,21.943-15.849
		C231.793,33.788,224.607,37.169,218.934,42.06z M329.877,32.917c-1.672,3.814-4.237,6.736-6.708,9.752
		c2.332-0.131,5.456-2.64,7.315-1.219c-4.088,3.207-8.997,4.632-13.41,7.315c-4.355,2.646-8.679,5.2-12.801,7.923
		c-0.959,5.448-6.287,6.79-7.313,10.973c-2.29,9.325,8.284,18.148,5.483,29.868c3.389,2.71,4.993,7.201,4.269,14.021
		c-2.325-0.543-3.892,0.994-4.876,0c1.382-7.255-1.893-12.483-8.535-9.753c-3.182,7.883-2.331,25.303-0.609,34.137
		c2.748,1.707,6.287,1.233,8.534-0.61c0.938-2.111,0.538-5.559,0.61-8.535c1.455,0.372,4.422-0.764,4.876,0.61
		c0.662,5.538-0.793,8.959-2.438,12.191c7.514,6.102,12.591,14.637,18.896,21.946c9.498,3.128,18.295-1.56,23.774-6.096
		c-10.918-1.273-23.129-1.253-23.164-13.412c-3.822,0.167-7.89-1.503-9.752-4.266c-5.247-7.781-4.398-46.601,9.142-41.452
		c-1.711-7.947-0.215-17.587,4.269-21.334c-6.179-4.045-16.568-10.168-14.632-18.288c1.591,2.611,1.9,2.877,4.269,2.439
		c1.258,8.9,8.813,11.505,14.63,15.848c-6.354,2.18-7.037,10.032-6.704,18.896c7.235-7.531,13.754-20.362,13.409-34.136
		c-0.064-2.592-3.088-6.578,1.22-7.314c4.227,19.403-6.013,32.877-13.411,44.499c3.659,0,7.314,0,10.973,0
		c2.994-1.069,2.949-5.179,6.095-6.095c1.215,3.834-5.135,5.992-2.438,7.314c4.44-1.321,9.979-4.558,13.411-4.876
		c-1.096,4.389-6.682,4.29-10.363,6.095c-1.002,2.596,0.947,4.868-1.217,6.706c-2.753-3.547-5.945-6.654-12.801-6.097
		c4.319,3.807,0.811,15.443,4.876,19.506c11.71,6.238,13.408-1.714,20.726-10.363c2.048-2.423,5.1-4.148,6.704-6.095
		c5.801-7.032,3.339-32.76-9.753-28.649c-4.753,2.407-3.652,13.754-9.752,12.801c2.742-2.546,3.122-6.899,4.876-10.362
		c1.688-3.341,5.494-5.322,6.704-7.925c3.922-8.427-1.821-16.07-6.704-21.334c-3.529,0.074-7.104,0.194-9.145-1.22
		c-2.106,5.207-7.306,7.324-6.095,15.849c-2.396-0.204-2.604,3.797-4.877,1.829c3.101-5.635,4.009-13.465,9.144-17.068
		c0.841-2.005,0.478-5.21,2.438-6.096c2.171,4.738,10.544,3.272,14.63,6.096C351.704,36.284,337.596,37.794,329.877,32.917z
		 M382.298,52.423c7.25,4.537,13.414,13.405,19.506,17.067c-1.29-4.557-7.417-7.055-11.581-12.19
		c-7.4-9.125-15.757-23.772-26.822-10.972c7.052-2.45,11.328,5.498,17.07,4.266c-1.387-0.599-1.511-3.052,0.609-3.046
		C382.489,48.169,382.34,50.348,382.298,52.423z M194.552,70.71c1.24-2.823,4.203-3.923,7.313-4.876
		c3.961-6.225,8.668-14.868,12.191-19.506C204.173,50.667,194.114,58.08,194.552,70.71z M387.784,60.957
		c-5.167-5.207-4.767-5.51-12.19-8.533c-6.362-2.592-12.265-6.83-18.287-1.219c-0.137,0.473-0.019,1.202-0.611,1.219
		c-0.287,6.135,2.802,12.025,0,17.067c5.83-1.854,11.922-1.77,15.24-6.095c2.178-2.839,0.724-9.25,5.486-8.534
		c-4.296,15.74,8.809,23.363,15.238,32.308c1.174-13.991-10.429-18.4-12.801-26.821c7.417,3.975,20.234,19.171,12.191,31.087
		c2.344,0.101,2.782,6.079,0,6.095c0.739-3.796-4.582-4.243-2.438-9.752c-4.264-4.677-8.867-9.013-11.58-15.24
		c-3.011,3.289-8.237,4.362-11.583,7.314c-0.184,5.547,1.722,11.989,0,17.069c11.733-3.533,5.521,12.062,12.801,11.581
		c2.38-0.157,3.41-2.751,3.658-3.657c2.545-9.289-11.727-18.328-3.658-23.773c-2.26,8.62,6.356,10.927,6.097,19.506
		c13.848-1.455,10.777,14.012,15.239,21.945c5.828,0.273,13.483,3.985,16.457,9.143c6.699-5.085-2.44-15.294,0-19.505
		c2.197,1.461,1.835,5.481,3.658,7.314c3.695-5.464-0.026-11.087-4.266-14.02c-2.366-1.637-3.897-0.483-5.487-2.438
		c-2.85-3.5,0.486-7.45,0-12.19c-0.184-1.775-2.386-4.761-3.048-7.925c-1.375-6.559-1.531-10.128-6.097-12.191
		c1.775,2.818,1.151,6.722-0.607,9.143c2.306,2.821,2.344,12.808,0,14.63c-0.417-7.307-1.24-14.202-4.269-18.896
		c2.316-2.524,2.906,3.833,3.658,0.609C400.807,68.808,393.209,66.426,387.784,60.957z M357.916,71.93
		c4.331,0.543,5.564,4.188,7.926,6.704c1.753-4.544,9.509-3.086,10.362-8.534c-1.285-1.561-1.298-4.393-2.441-6.096
		C370.762,68.926,363.457,69.546,357.916,71.93z M193.332,73.148c-3.7,5.96-4.264,19.092,1.828,23.164
		c3.589-4.944,0.681-13.467,0.609-20.115c1.722-2.749,5.113-3.829,9.753-3.658c1.349-1.718,3.921-5.403,2.438-7.924
		C204.351,67.858,196.634,67.83,193.332,73.148z M182.359,82.292c0.8,10.173-1.606,23.552,1.22,31.698
		c6.204-2.33,5.49-11.576,9.753-15.848c-6.553-6.008-3.098-21.616-1.83-29.259C185.495,70.392,185.82,78.235,182.359,82.292z
		 M416.436,103.017c0.294-8.223,0.381-19.478-6.097-18.896C416.339,88.972,407.432,101.962,416.436,103.017z M368.887,98.75
		c-11.709,7.297-19.533,34.586-38.402,21.336c-4.471,0-8.939,0-13.41,0c0.267,5.422-0.83,12.208,1.219,15.849
		c2.748,1.707,6.287,1.233,8.535-0.61c0.938-2.111,0.539-5.559,0.609-8.535c1.963,0.134,2.58-1.076,4.877-0.61
		c0,1.017,0,2.034,0,3.048c7.121,0.907,10.849,4.683,17.067,5.486c15.689,2.026,19.899-11.216,28.04-16.457
		c-4.281,7.91-10.684,13.699-17.677,18.895c-0.432,4.495,0.778,7.35,3.048,9.143c8.202-2.014,21.421-4.353,28.041-10.97
		c8.8-8.803,8.018-19.538-3.659-24.992c2.452-3.691,7.126,4.685,8.534,1.828c-1.078-5.424-3.924-9.082-10.362-9.144
		c-0.814,2.845-2.483,4.831-3.659,7.316c6.003,3.909,6.557,19.165,0.61,23.771c3.685-10.083,2.914-23.136-8.535-24.381
		c-3.322,6.024-10.111,11.826-15.847,13.411C362.552,116.975,381.439,107.868,368.887,98.75z M317.074,115.209
		c3.454,0,6.908,0,10.363,0c0-3.862,0-7.721,0-11.582C320.569,96.821,314.637,105.35,317.074,115.209z M273.796,119.476
		c-2.495,2.584-6.578,3.582-9.146,6.097c0.132,3.321-0.419,7.327,0.611,9.753c2.246,1.843,5.786,2.316,8.534,0.61
		C275.194,132.58,276.239,122.641,273.796,119.476z M400.586,124.352c-1.865,4.088-8.48,10.787-7.926,12.801
		c7.814-1.126,21.024,3.143,22.555-4.266C412.507,127.874,405.959,126.701,400.586,124.352z M332.314,133.497
		c-0.649,4.836-4.616,6.355-7.314,9.142c1.178,3.088,2.48,6.052,4.266,8.536c8.072,0.359,23.966,5.002,29.258-2.439
		c0.246-5.122-3.653-6.102-3.045-11.583C345.537,138.152,340.8,133.951,332.314,133.497z M388.396,139.591
		c-5.693,2.403-16.134,7.478-23.774,10.973c-5.234,2.394-13.779,3.156-11.582,12.191c12.601-9.751,41.671-8.312,52.424-21.944
		C401.669,137.626,394.992,140.442,388.396,139.591z M322.562,163.975c0.003,8.124,5.336,10.916,7.923,16.457
		c7.728,0.638,8.426-4.654,12.193-7.924c2.606-2.263,5.63-2.228,6.704-5.487c-0.099-2.667,1.118-10.001,0-10.971
		C343.034,162.842,333.695,164.697,322.562,163.975z M335.97,188.357c0.197-1.431,0.966-2.286,0.611-4.266
		c-0.72-0.702-2.156-0.689-3.659-0.61C333.457,185.586,334.204,187.482,335.97,188.357z"/>
	<path fill-rule="evenodd" clip-rule="evenodd" fill="#FFFFFF" d="M239.049,30.479c-4.562,5.598-13.87,11.729-21.943,15.849
		c-1.151-0.068-0.423-2.015-1.829-1.829c0.668-2.177,2.091-3.6,4.267-4.268c-0.322,0.491-0.637,0.99-0.609,1.829
		C224.607,37.169,231.793,33.788,239.049,30.479z"/>
	<path fill-rule="evenodd" clip-rule="evenodd" fill="#FFFFFF" d="M381.08,47.547c-2.12-0.006-1.996,2.448-0.609,3.046
		c-5.742,1.232-10.019-6.716-17.07-4.266c11.065-12.8,19.422,1.848,26.822,10.972c4.164,5.136,10.291,7.633,11.581,12.19
		c-6.092-3.662-12.256-12.53-19.506-17.067C382.34,50.348,382.489,48.169,381.08,47.547z"/>
</g>
</svg>
