<?xml version="1.0" encoding="utf-8"?>
<!-- Generator: Adobe Illustrator 15.0.0, SVG Export Plug-In . SVG Version: 6.00 Build 0)  -->
<!DOCTYPE svg PUBLIC "-//W3C//DTD SVG 1.1//EN" "http://www.w3.org/Graphics/SVG/1.1/DTD/svg11.dtd">
<svg version="1.1" xmlns="http://www.w3.org/2000/svg" xmlns:xlink="http://www.w3.org/1999/xlink" x="0px" y="0px" width="720px"
	 height="720px" viewBox="0 0 720 720" enable-background="new 0 0 720 720" xml:space="preserve">
<g id="Layer_8">
	<rect display="none" fill="#53C8EA" width="719.998" height="719.998"/>
</g>
<g id="headphones">
	<path fill="#0E0E0F" d="M439.5,720c0,0,3-45,8.896-61.409c0.32-0.892,7.604-40.091,13.443-43.988
		C464.5,607.838,469,595.5,472,589.5s22-29.176,26-25.588s4,3.588,4,3.588s-8,14.5-15.5,20
		c-5.588,7.756-15.593,27.761-17.346,32.064s-8.396,28.863-9.688,34.186s-6.26,37.337-6.438,38.814S450.957,720,450.957,720H439.5z"
		/>
	<path d="M581,383c0,0-38.801,43.875-44.623,49.762c-3.393,4.73-11.091,12.161-17.107,19.738
		c-9.056,11.406-16.831,23.144-20.546,26.5c-4.058,3.667-19.342,18.238-24.151,24.425c-2.321,2.986-9.195,11.082-15.012,19.42
		c-6.234,8.938-11.402,18.153-13.061,21.655c-4.881,10.305-5.373,27.088,2,34s9.5,10,15.5,12s15.912-7.412,24.956-17
		S500,562.824,506,569.912s14,19.588,32.5,3.588s38.5-37,41.5-45.5c6.5-7,36-47.5,39.5-56s7.833-27.189,19-31
		c10.729-3.661,13.833-4.716,16.5-30c3.5-6,2.5-13,10.5-14c7.5-9,15.5-31,15.5-31s0-14-10.5-15c0.5-14.5,1-17.5,1-17.5s-2-6-5-6.5
		c4.5-3.5,6-8.5,6-17c0.5-8.5-3-49.5-6-54c0-7.5,5-26.5-28.5-81.5c-5.5-12.5-39.365-67-75.683-81.5C540,77.5,524.5,56,463.5,35.5
		c-15-4-37-17-88.5-16.5c-18,2.5-65.295,8.5-86.147,18.5c-4.353,2.5-15.32,5.999-18.353,12c-8,2-15,5.5-30.5,16
		c-3.5,3-20.5,12.5-19.5,15s-0.096-1.5,2.952,8.5c-2.733,5-13.471,12.734-16.322,16c-5.462,6.258-5.796,4.667-13.129-1.666
		c-3.001,3.167-6.535,7.924-17.371,18.19c-6.57,8.587-4.689,7.808-7.856,10.809c10.809,10.167,6.059,30.168-8.274,21.167
		c-4-1-12.5,4.496-12.974,13.945c3.5,5,8.592,14.552,4.14,20.691C148.892,191.961,141.5,202,141.5,202s-16,14-24,27.5
		c-4,6.5-21,29-23,47c-2.25,7.394-8.806,23.204,6,28c6.5,7.833,47.5-35,47.5-35s11.5-29.125,13.5-34.062S168,205,167,203.5
		s0-28,2-29.5s8.746-22.792,27.5-45c9.5-5,41.528-32.792,49.5-37c18-9.5,31-29,59.5-37.5c10.5-2,39-11,64-2c12,2,52,7,64,15.5
		c3.5,2.5,51.5,21,57,26s60.5,49,59,54c5.5,7.5,36,54.5,38,61s32.5,56,32.5,60.5c5,7.5,14,56,13,60.5s9.5,2,9.5,2s-9,10-9.5,12
		s-1,18.457-1.5,24.229S626,381.5,628,385.5c-2,5.5-10,9.5-8.5,25.5c-4,8-8,14-8,14l-9.5,2.5c0,0,6.61-17.81,5.5-23.846
		c-1.5-8.154-17-16.654-19-16.154S581,383,581,383z"/>
	<path d="M94.5,276.5c-2.25,7.394-6,33.5,7,24c19.75-9.478,46.5-31,46.5-31"/>
	<path fill="#575250" d="M137,358l-8.501,24.708c0,0-4.039-3.209-11.499-9.708c-13.5-18.5-13.5-36.5-13.5-36.5"/>
	<path display="none" d="M141.5,348.5c0,0-36.182-25.5-32.591-21.5c7.091-3.5,42.079-40.898,47.591-40c0,0,7-1.5,4.5,12.5
		c-3.304,6.236-5.5,9-5.5,9l-3,10.227"/>
</g>
<g id="shirt">
	<path fill="#961B1E" d="M0,530.5c0-6,45-9,29.5-9.5c21.5-0.5,41-1.5,44-4s16,0.5,29.5-6s5,6.5,9.5,9.75c1.5,9.25,4,17.25,4,21.75
		s0.5,23-1.5,23s-1,28-4,21c-0.5,13-1,19,2,20.5s-1,16,10.5,25s20,18.5,24,20.5s26.5,17,28.5,17s35.5,17.5,37.5,17.5
		s32.5,15,46,15.5s12.5,4.5,50,2.5c38-9.5,29.604-5.805,63.104-20.805c7-5.5,24.098-14.21,33.396-20.695
		c4.152-2.896,18.5-19.5,25.5-25.5c4.634-3.972,20-23,21.5-25.5s10.5-19,11-22c4.5-1,8-1,8-1s-6.5,15.176-7.5,18.338
		S450.5,641,452,645c-3,9.5-7,28-6.5,30.5s-1.5,19-2.5,21s-3.5,23.5-3.5,23.5H371h-78H182.5H64H0"/>
	<path fill="#961B1E" d="M486.5,587.5c0,0-9.5,12.5-11,17s-13,28.5-11,30.5c-1.5,5-10,36-8.5,38c-1.5,5-5.5,39.5-5,41.5
		s-0.043,5.5-0.043,5.5H666.5c0,0-38-30.5-39-34s-31.5-28-34-27.5s-30-15-41.5-18.5c-6-3-15-13-20-19.5s-19.151-12.14-26.151-17.14
		S494.5,587.5,486.5,587.5z"/>
	<path fill="#FFFFFF" d="M650.333,261c0.049,7.997,1.114,15.013,3.5,22.553c1.182,3.733,3.799,6.764,5.001,10.28
		c0.994,2.909,0.459,6.761,1.499,9.167"/>
	<path fill="#FFFFFF" d="M655.666,259c3.7-1.831,7.704-3.865,8.667-8"/>
	<path fill="#FFFFFF" d="M647.666,261.667c-7.449,4.204-15.815,3.298-24,5.333"/>
	<path fill="#FFFFFF" d="M665,304.333c2.148-2.789,5.184-5.211,7.333-8"/>
	<path fill="#FFFFFF" d="M665,253.667c0.361,3.537,2.969,6.447,3.867,9.466c1.06,3.559,0.127,7.583,0.765,11.235
		c1.237,7.093,2.034,14.113,2.034,21.966"/>
	<g>
		<path fill="#FFFFFF" d="M633,330.333c1.701,0.363,3.412,0.64,5.135,0.818c1.718,0.207,3.442,0.346,5.169,0.417
			c3.45,0.139,6.909,0.111,10.328-0.263c3.411-0.362,6.815-1.042,9.935-2.421c1.551-0.695,3.014-1.61,4.209-2.82
			c1.218-1.189,2.092-2.721,2.558-4.398c-0.243,1.728-1.05,3.376-2.198,4.731c-1.177,1.337-2.662,2.372-4.235,3.18
			c-3.176,1.606-6.686,2.33-10.161,2.722c-3.492,0.356-7.007,0.356-10.486,0.033C639.778,332.001,636.302,331.458,633,330.333z"/>
	</g>
	<g>
		<path fill="#FFFFFF" d="M621.666,269.667c3.301,4.141,5.145,9.241,6.556,14.299c1.39,5.098,2.21,10.322,2.885,15.544
			c0.589,5.235,1.007,10.483,1.269,15.735l0.339,7.877L633,331c-0.629-5.223-0.964-10.473-1.393-15.706
			c-0.42-5.234-0.83-10.466-1.492-15.666c-0.589-5.207-1.418-10.386-2.636-15.473c-0.606-2.542-1.341-5.057-2.276-7.498
			C624.298,274.207,623.143,271.843,621.666,269.667z"/>
	</g>
	<g>
		<path fill="#FFFFFF" d="M671,331c-0.044,1.953-0.473,3.905-1.213,5.739c-0.765,1.827-1.877,3.509-3.219,4.975
			c-2.707,2.942-6.307,4.917-10.053,6.164c-3.785,1.17-7.781,1.65-11.718,1.328c-3.922-0.329-7.841-1.406-11.132-3.539
			c1.744,0.876,3.574,1.548,5.459,1.978c1.876,0.461,3.797,0.719,5.721,0.793c3.844,0.157,7.723-0.306,11.365-1.511
			c3.655-1.133,7.098-3.038,9.804-5.742C668.739,338.502,670.509,334.875,671,331z"/>
	</g>
	<g>
		<g>
			<path fill="#FFFFFF" d="M635.295,344.865c2-4,4-8,6-12c0.247-0.494-1.637-0.305-1.924,0.27c-2,4-4,8-6,12
				C633.124,345.629,635.008,345.44,635.295,344.865L635.295,344.865z"/>
		</g>
	</g>
	<g>
		<path fill="#FFFFFF" d="M654.333,333.667c0.395,2.007,0.483,4.006,0.583,5.995c0.069,1.994,0.146,3.965,0.084,6.005
			c-0.723-1.917-0.984-3.951-1.082-5.963C653.85,337.684,653.938,335.67,654.333,333.667z"/>
	</g>
	<g>
		<path fill="#FFFFFF" d="M669.666,322.333c1,1.43,1.476,3.182,1.579,4.919c0.081,1.743-0.189,3.498-0.912,5.081
			c-0.057-1.738,0.017-3.383-0.086-5.028C670.175,325.657,669.928,324.052,669.666,322.333z"/>
	</g>
	<g>
		<path fill="#FFFFFF" d="M669,339c0.395,2,0.482,4,0.5,6c-0.015,2-0.104,4-0.5,6c-0.396-2-0.485-4-0.5-6
			C668.518,343,668.605,341,669,339z"/>
	</g>
	<g>
		<path fill="#FFFFFF" d="M669.666,351.667c1.805,0.439,3.542,1.265,5.054,2.395c1.533,1.109,2.852,2.495,3.997,3.984l0.334,0.433
			l-0.479,0.272c-1.303,0.74-2.729,1.17-4.178,1.366c-1.447,0.201-2.937,0.183-4.381-0.185c-0.721-0.182-1.427-0.485-2.046-0.94
			c-0.618-0.45-1.127-1.105-1.332-1.854c-0.219-0.749-0.119-1.524,0.092-2.213c0.212-0.696,0.546-1.334,0.939-1.924
			c-0.555,1.277-0.968,2.734-0.507,3.967c0.448,1.241,1.768,1.864,3.053,2.124c1.312,0.271,2.698,0.246,4.042,0.053
			c1.34-0.215,2.678-0.578,3.841-1.227l-0.146,0.705c-1.074-1.471-2.263-2.854-3.634-4.05
			C672.932,353.391,671.376,352.403,669.666,351.667z"/>
	</g>
	<g>
		<g>
			<path fill="#FFFFFF" d="M668.243,352.356c1.091,0,1.492-1.38,0.18-1.38C667.332,350.977,666.931,352.356,668.243,352.356
				L668.243,352.356z"/>
		</g>
	</g>
	<g>
		<path fill="#FFFFFF" d="M269.707,54.97c0.766,0.447,1.335,1.097,1.711,1.841c0.169,0.387,0.245,0.826,0.424,1.199
			c0.172,0.377,0.426,0.708,0.696,1.035c0.563,0.641,0.977,1.373,1.321,2.129c0.299,0.778,0.514,1.59,0.521,2.474l-0.093,0.037
			c-0.604-0.644-1.025-1.35-1.401-2.074c-0.33-0.745-0.63-1.497-0.833-2.312c-0.113-0.401-0.256-0.792-0.493-1.128
			c-0.231-0.34-0.581-0.606-0.848-0.917c-0.5-0.649-0.866-1.355-1.087-2.225L269.707,54.97z"/>
	</g>
	<path fill="none" stroke="#FFFFFF" stroke-miterlimit="10" d="M219,81c2,3.333,4,6.667,6,10"/>
	<g>
		<path fill="#FFFFFF" d="M677,359.667c1.669,1.371,2.816,3.368,3.202,5.516c0.412,2.149,0.21,4.367-0.254,6.485
			c-0.988,4.25-2.934,8.186-5.101,11.921c-2.182,3.744-4.728,7.256-7.408,10.646c-1.346,1.692-2.736,3.349-4.173,4.966
			c-0.718,0.809-1.448,1.606-2.194,2.393c-0.744,0.79-1.528,1.536-2.211,2.326c-1.395,1.577-2.593,3.338-3.282,5.301
			c-0.711,1.957-0.844,4.072-0.708,6.188c0.128,2.121,0.44,4.273,0.447,6.467c0.027,2.19-0.299,4.408-1.021,6.484
			c-0.678,2.099-1.917,4.034-3.527,5.533c-1.608,1.512-3.513,2.63-5.462,3.566c-3.899,1.87-8.116,3.017-11.643,5.541
			c1.676-1.363,3.624-2.353,5.577-3.257c1.958-0.906,3.946-1.738,5.848-2.724c1.902-0.972,3.736-2.102,5.242-3.582
			c1.511-1.474,2.628-3.303,3.233-5.318c0.645-2.014,0.916-4.121,0.887-6.236c-0.02-2.119-0.342-4.24-0.49-6.418
			c-0.156-2.168-0.037-4.447,0.714-6.562c0.73-2.119,1.992-3.996,3.435-5.645c6.085-6.126,11.548-12.77,16.079-20.063
			c2.225-3.649,4.219-7.499,5.283-11.64c0.526-2.06,0.798-4.217,0.469-6.327C679.63,363.123,678.598,361.121,677,359.667z"/>
	</g>
	<g>
		<path fill="#FFFFFF" d="M632.333,346.333c0.11,3.939-0.05,7.888-0.389,11.821c-0.369,3.931-0.96,7.842-1.725,11.718
			c-1.542,7.758-3.88,15.314-6.379,22.8c-2.466,7.396-3.581,15.323-6.62,22.684c-1.519,3.646-3.512,7.235-6.544,9.881
			c-1.515,1.305-3.275,2.322-5.163,2.945c-1.887,0.635-3.88,0.867-5.848,0.818c1.968-0.06,3.93-0.383,5.76-1.068
			c1.83-0.683,3.504-1.739,4.925-3.061c2.876-2.64,4.747-6.18,6.156-9.803c1.394-3.651,2.426-7.442,3.357-11.262
			c0.951-3.817,1.771-7.676,3.033-11.463c2.567-7.427,4.882-14.959,6.572-22.629C631.17,362.046,632.132,354.211,632.333,346.333z"
			/>
	</g>
	<g>
		<path fill="#FFFFFF" d="M599,428.333c1.22-4.808,3.439-9.281,4.917-13.959c0.733-2.337,1.404-4.702,1.636-7.11
			c0.237-2.39,0.02-4.862-1.116-6.928c-0.553-0.983-1.371-1.913-2.215-2.77c-0.854-0.86-1.771-1.671-2.712-2.452
			c-1.882-1.568-3.89-2.99-5.896-4.413c-2.018-1.408-4.085-2.75-6.188-4.034c-2.091-1.307-4.224-2.546-6.425-3.667
			c4.572,1.898,8.869,4.397,13.042,7.062c2.091,1.333,4.102,2.791,6.045,4.347c0.968,0.784,1.913,1.6,2.81,2.481
			c0.891,0.892,1.751,1.811,2.422,2.978c1.234,2.317,1.416,5.002,1.139,7.489c-0.288,2.509-0.958,4.933-1.815,7.265
			c-0.851,2.336-1.836,4.607-2.828,6.869C600.804,423.744,599.777,425.987,599,428.333z"/>
	</g>
	<g>
		<path fill="#FFFFFF" d="M635.666,411c3.002,1.132,5.637,3.118,7.87,5.43c2.192,2.352,4.041,5.108,4.987,8.261
			c0.457,1.568,0.664,3.274,0.285,4.937c-0.354,1.662-1.381,3.181-2.751,4.169c-1.366,1.007-2.968,1.572-4.567,1.916
			c-1.61,0.336-3.232,0.474-4.867,0.459c-3.324-0.073-6.573-1.389-9.034-3.585c-2.451-2.186-4.228-5.202-4.643-8.493
			c-0.203-1.636-0.06-3.334,0.533-4.885c0.593-1.549,1.644-2.911,2.964-3.882c2.695-1.934,6.06-2.422,9.223-2.326
			c-3.158,0.123-6.46,0.74-8.924,2.715c-1.221,0.964-2.161,2.258-2.67,3.711c-0.509,1.455-0.598,3.037-0.364,4.561
			c0.501,3.051,2.146,5.892,4.481,7.916c2.325,2.038,5.373,3.226,8.447,3.27c1.557,0.03,3.14-0.09,4.659-0.394
			c1.516-0.31,3-0.829,4.224-1.715c1.228-0.873,2.116-2.162,2.447-3.631c0.34-1.467,0.206-3.04-0.181-4.538
			c-0.807-3.014-2.533-5.767-4.61-8.137C641.098,414.375,638.573,412.337,635.666,411z"/>
	</g>
	<g>
		<path fill="#FFFFFF" d="M638.333,418.333c0.099,1.503-0.256,2.982-0.813,4.355c-0.584,1.364-1.383,2.652-2.52,3.645
			c0.473-1.429,1.062-2.71,1.598-4.029C637.162,420.994,637.657,419.68,638.333,418.333z"/>
	</g>
	<g>
		<path fill="#FFFFFF" d="M635.666,425.667c0.641,0.384,1.056,0.696,1.522,1.087c0.219,0.202,0.448,0.406,0.651,0.662
			c0.204,0.25,0.41,0.544,0.493,0.917c-0.37-0.07-0.672-0.16-0.969-0.298c-0.299-0.13-0.572-0.312-0.832-0.527
			c-0.246-0.228-0.48-0.486-0.64-0.802C635.731,426.4,635.62,426.035,635.666,425.667z"/>
	</g>
	<g>
		<path fill="#FFFFFF" d="M631.666,443.667c-0.835,3.63-2.096,7.151-3.509,10.597c-1.425,3.443-3.024,6.812-4.726,10.129
			c-3.405,6.632-7.241,13.031-11.225,19.327c-2.008,3.145-4.035,6.256-6.098,9.366c-2.068,3.102-4.227,6.141-6.404,9.163
			c-4.362,6.042-8.867,11.974-13.341,17.922c-2.232,2.974-4.476,5.953-6.654,8.952c-2.161,3.035-4.385,6.027-6.654,8.986
			c-4.544,5.911-9.333,11.65-14.523,17.02c-2.591,2.687-5.289,5.272-8.092,7.74c-2.79,2.495-5.787,4.717-8.661,7.074
			c-2.901,2.334-5.838,4.651-8.996,6.667c-1.581,1.002-3.217,1.933-4.95,2.673c-1.728,0.729-3.576,1.301-5.5,1.298h-0.015
			l-0.01-0.001c-2.219-0.269-4.245-1.185-6.166-2.19c-1.92-1.027-3.74-2.216-5.514-3.463c-3.551-2.493-6.875-5.273-10.296-7.927
			c3.471,2.588,6.851,5.305,10.438,7.723c1.79,1.209,3.626,2.356,5.545,3.336c1.914,0.96,3.936,1.815,6.042,2.027l-0.024-0.001
			c1.815-0.02,3.6-0.584,5.278-1.314c1.686-0.74,3.287-1.673,4.837-2.681c3.1-2.024,5.994-4.358,8.865-6.72
			c2.859-2.391,5.816-4.651,8.565-7.137c2.775-2.462,5.446-5.041,8.014-7.722c5.142-5.355,9.887-11.085,14.395-16.991
			c2.257-2.952,4.445-5.957,6.616-8.976c2.208-3.016,4.453-5.977,6.7-8.948c4.497-5.935,9.019-11.846,13.395-17.86
			c2.19-3.005,4.332-6.044,6.437-9.107c2.084-3.072,4.155-6.177,6.187-9.285c4.056-6.234,7.909-12.602,11.435-19.148
			c1.76-3.275,3.419-6.606,4.906-10.015C629.438,450.77,630.762,447.28,631.666,443.667z"/>
	</g>
	<g>
		<path fill="#FFFFFF" d="M586.333,389c-2.55,9.351-6.27,18.357-10.604,27.026c-4.374,8.657-9.392,16.98-14.815,25.02
			c-10.851,16.079-23.508,30.934-37.126,44.685c-13.175,14.16-24.617,29.868-37.508,44.352c-6.35,7.311-12.752,14.614-19.781,21.307
			c-7.041,6.638-14.723,12.781-23.498,16.944c8.703-4.311,16.25-10.562,23.159-17.297c6.938-6.744,13.26-14.086,19.537-21.456
			c6.329-7.332,12.451-14.818,18.525-22.368c6.092-7.529,12.24-15.036,18.834-22.161c0.834-0.893,1.646-1.766,2.51-2.649
			l2.546-2.581c1.687-1.731,3.351-3.485,4.992-5.26c3.285-3.548,6.48-7.179,9.592-10.881c6.225-7.402,12.083-15.111,17.585-23.065
			c5.486-7.964,10.561-16.221,15.016-24.81C579.764,407.23,583.627,398.306,586.333,389z"/>
	</g>
	<g>
		<path fill="#FFFFFF" d="M572.333,393c1.355,1.146,2.547,2.36,3.77,3.563c1.204,1.222,2.419,2.412,3.563,3.77
			c-1.627-0.727-3.02-1.835-4.27-3.063C574.17,396.019,573.062,394.626,572.333,393z"/>
	</g>
	<g>
		<path fill="#FFFFFF" d="M566.333,401.667c1.355,1.146,2.547,2.36,3.771,3.562c1.203,1.223,2.418,2.413,3.562,3.771
			c-1.627-0.727-3.02-1.836-4.27-3.063C568.17,404.686,567.062,403.293,566.333,401.667z"/>
	</g>
	<g>
		<path fill="#FFFFFF" d="M557.666,411.667l2.359,1.977c0.789,0.638,1.578,1.271,2.383,1.894c1.587,1.269,3.231,2.532,4.592,4.13
			c-1.848-0.972-3.568-2.071-5.21-3.346C560.176,415.035,558.644,413.527,557.666,411.667z"/>
	</g>
	<g>
		<path fill="#FFFFFF" d="M550.333,421c2.029,1.121,3.8,2.608,5.467,4.172c1.648,1.59,3.201,3.269,4.533,5.161
			c-1.894-1.333-3.566-2.881-5.222-4.438C553.474,424.315,551.863,422.732,550.333,421z"/>
	</g>
	<g>
		<path fill="#FFFFFF" d="M540.333,430.333c2.236,1.681,4.109,3.746,6.01,5.715c1.889,1.994,3.795,3.905,5.99,5.619
			c-2.614-1.036-4.798-2.938-6.713-4.929C543.709,434.71,542.004,432.56,540.333,430.333z"/>
	</g>
	<g>
		<path fill="#FFFFFF" d="M534.333,439c1.872,1.948,3.838,3.674,5.859,5.421c1.984,1.76,4.052,3.588,5.474,5.912
			c-2.015-1.796-4.101-3.394-6.133-5.161C537.529,443.403,535.572,441.423,534.333,439z"/>
	</g>
	<g>
		<path fill="#FFFFFF" d="M523.666,449c1.964,1.735,3.908,3.393,5.865,5.092c1.93,1.717,3.899,3.458,5.469,5.575
			c-2.116-1.545-4.159-3.11-6.127-4.823C526.933,453.119,525.035,451.253,523.666,449z"/>
	</g>
	<g>
		<path fill="#FFFFFF" d="M515,461.667c1.866,1.619,3.619,3.269,5.418,4.898c1.776,1.651,3.589,3.267,5.248,5.102
			c-2.153-1.214-4.104-2.713-5.924-4.365C517.946,465.631,516.264,463.797,515,461.667z"/>
	</g>
	<g>
		<path fill="#FFFFFF" d="M507,475c1.635,1.412,3.172,2.821,4.757,4.218c1.562,1.416,3.161,2.81,4.576,4.449
			c-1.907-1.019-3.632-2.284-5.242-3.705C509.506,478.524,508.023,476.913,507,475z"/>
	</g>
	<g>
		<path fill="#FFFFFF" d="M495.666,483.667c2.605,1.38,4.853,3.335,6.927,5.387c2.062,2.08,3.965,4.276,5.74,6.613
			c-2.341-1.784-4.388-3.869-6.447-5.907C499.843,487.698,497.802,485.68,495.666,483.667z"/>
	</g>
	<g>
		<path fill="#FFFFFF" d="M487,494.333c2.188,1.312,4.194,2.864,6.054,4.604c1.829,1.755,3.534,3.735,4.612,6.062
			c-1.729-1.873-3.476-3.62-5.301-5.337C490.562,497.931,488.688,496.252,487,494.333z"/>
	</g>
	<g>
		<path fill="#FFFFFF" d="M477,505c1.584,1.347,3.057,2.707,4.547,4.098c1.462,1.408,2.947,2.841,4.119,4.569
			c-1.724-1.159-3.304-2.438-4.807-3.845C479.384,508.401,477.974,506.848,477,505z"/>
	</g>
	<g>
		<path fill="#FFFFFF" d="M470.333,517c2.13,0.947,4.104,2.153,5.96,3.552c1.826,1.417,3.567,3.063,4.707,5.115
			c-1.748-1.538-3.496-2.942-5.314-4.321C473.888,519.949,472.028,518.605,470.333,517z"/>
	</g>
	<g>
		<path fill="#FFFFFF" d="M463.666,526.333c1.957,0.537,3.731,1.609,5.295,2.877c1.555,1.292,2.917,2.773,4.039,4.457
			c-1.688-1.129-3.149-2.456-4.673-3.685C466.821,528.724,465.267,527.576,463.666,526.333z"/>
	</g>
	<g>
		<path fill="#FFFFFF" d="M456.333,535c1.275,1.354,2.42,2.707,3.648,4.013c1.205,1.324,2.47,2.578,3.685,3.987
			c-1.695-0.777-3.153-1.961-4.419-3.309C458.005,538.324,456.934,536.766,456.333,535z"/>
	</g>
	<g>
		<path fill="#FFFFFF" d="M448.333,545.667c1.5,0.633,2.821,1.512,4.077,2.489c1.23,1,2.412,2.11,3.256,3.511
			c-1.396-0.831-2.639-1.759-3.878-2.729C450.569,547.947,449.361,546.932,448.333,545.667z"/>
	</g>
	<g>
		<path fill="#FFFFFF" d="M459,581c2.474-0.181,4.787-1.205,6.912-2.417c2.134-1.227,4.114-2.703,6.008-4.271
			c3.781-3.153,7.22-6.695,10.492-10.369c3.275-3.675,6.384-7.498,9.341-11.433c1.465-1.974,2.942-3.954,4.261-6.014
			c1.353-2.078,2.812-4.081,4.348-6.022c6.13-7.796,13.443-14.493,20.063-21.759c3.292-3.642,6.515-7.388,9.165-11.491
			c2.722-4.133,5.612-8.14,8.601-12.073c12.022-15.676,25.435-30.194,36.926-46.2c5.74-7.99,10.989-16.368,15.108-25.312
			c1.029-2.231,2.02-4.493,2.871-6.794c0.839-2.312,1.559-4.668,2.244-7.034c1.366-4.733,2.604-9.52,4.326-14.143
			c-1.646,4.651-2.802,9.448-4.091,14.209c-0.646,2.379-1.329,4.754-2.134,7.09c-0.821,2.337-1.773,4.613-2.771,6.875
			c-4.045,9.023-9.244,17.484-14.928,25.555c-11.402,16.154-24.839,30.688-36.758,46.36c-2.988,3.909-5.882,7.896-8.596,11.99
			c-2.718,4.175-5.969,7.926-9.293,11.582c-6.692,7.274-13.965,13.966-20.135,21.623c-1.541,1.911-3.007,3.884-4.363,5.926
			c-1.359,2.081-2.853,4.041-4.344,6.013c-3.006,3.919-6.151,7.729-9.48,11.378c-3.344,3.632-6.853,7.129-10.699,10.232
			c-1.927,1.543-3.939,2.992-6.103,4.189C463.818,579.87,461.477,580.86,459,581z"/>
	</g>
	<g>
		<path fill="#FFFFFF" d="M444.333,567.667c4.317,4.192,8.075,8.918,12.37,13.082c2.151,2.07,4.358,4.099,6.826,5.731
			c2.452,1.64,5.21,2.848,8.127,2.763c2.876-0.044,5.664-1.298,8.184-2.807c2.541-1.529,4.863-3.418,7.127-5.366
			c4.504-3.938,8.553-8.388,12.699-12.737c-1.919,2.313-3.861,4.605-5.86,6.855c-2.021,2.229-4.111,4.401-6.325,6.454
			c-2.206,2.06-4.581,3.959-7.166,5.57c-2.58,1.571-5.461,2.943-8.646,3.029c-0.38,0.001-0.824-0.016-1.183-0.062
			c-0.337-0.037-0.771-0.075-1.147-0.143c-0.774-0.138-1.528-0.356-2.254-0.63c-1.451-0.556-2.795-1.319-4.06-2.172
			c-2.521-1.724-4.774-3.77-6.864-5.946c-2.094-2.174-4.064-4.451-6.001-6.75C448.238,572.227,446.359,569.886,444.333,567.667z"/>
	</g>
	<g>
		<path fill="#FFFFFF" d="M500.333,566.333c4.855-5.286,9.79-10.5,14.701-15.733c4.932-5.213,9.85-10.438,14.645-15.771
			c9.585-10.655,18.808-21.694,26.5-33.779c1.949-2.997,3.712-6.115,5.617-9.174c1.894-3.056,3.847-6.071,5.825-9.068l11.971-17.896
			c3.957-5.979,7.791-12.044,11.234-18.331c3.47-6.267,6.543-12.776,8.84-19.58c-2.142,6.854-5.072,13.449-8.409,19.812
			c-3.365,6.353-7.136,12.479-11.021,18.519c-3.874,6.049-7.936,11.969-11.854,17.976c-1.963,3-3.898,6.018-5.772,9.07
			c-1.879,3.041-3.634,6.184-5.589,9.21c-7.807,12.108-17.053,23.194-26.776,33.757c-4.871,5.278-9.852,10.45-14.859,15.593
			C510.355,556.059,505.307,561.158,500.333,566.333z"/>
	</g>
	<g>
		<path fill="#FFFFFF" d="M657,305.667c-2.023,0.678-4.109,1.152-6.212,1.517c-2.104,0.377-4.231,0.586-6.359,0.728
			c-2.13,0.118-4.261,0.168-6.389,0.109l-3.188-0.112c-1.062-0.079-2.124-0.128-3.186-0.241c1.062-0.113,2.123-0.162,3.184-0.249
			l3.179-0.167c2.117-0.122,4.231-0.198,6.34-0.337c2.109-0.115,4.212-0.295,6.316-0.489
			C652.789,306.221,654.886,305.942,657,305.667z"/>
	</g>
	<g>
		<path fill="#FFFFFF" d="M659.666,307c-0.289,3.162,0.176,6.218,0.751,9.291c0.548,3.066,1.283,6.184,1.249,9.375
			c-0.749-3.076-1.643-6.067-2.231-9.194c-0.278-1.562-0.493-3.15-0.495-4.755C658.924,310.119,659.135,308.499,659.666,307z"/>
	</g>
	<g>
		<path fill="#FFFFFF" d="M137,206.333c-3.31,3.394-6.252,7.117-9.141,10.866c-2.893,3.749-5.682,7.576-8.378,11.466
			c-5.394,7.778-10.529,15.744-15.109,24.021c-4.606,8.244-8.799,16.79-11.51,25.829c-1.307,4.508-2.262,9.212-1.844,13.899
			c0.217,2.325,0.829,4.649,2.079,6.643c1.239,1.998,3.111,3.57,5.237,4.61c-2.171-0.941-4.135-2.457-5.46-4.465
			c-1.342-1.997-2.047-4.363-2.343-6.734c-0.526-4.788,0.361-9.577,1.591-14.162c1.25-4.604,3.022-9.039,4.958-13.378
			c1.95-4.338,4.117-8.572,6.42-12.727c4.673-8.272,9.812-16.272,15.356-23.976c2.779-3.847,5.643-7.632,8.621-11.326
			c1.5-1.838,3.026-3.656,4.597-5.434C133.644,209.687,135.251,207.936,137,206.333z"/>
	</g>
	<g>
		<path fill="#FFFFFF" d="M141,203.667c0.943,0.697,1.653,1.479,2.486,2.028c0.814,0.58,1.743,0.906,2.848,1.305
			c-0.551,0.205-1.147,0.256-1.738,0.171c-0.594-0.076-1.172-0.317-1.675-0.653C141.923,205.812,141.281,204.79,141,203.667z"/>
	</g>
	<g>
		<path fill="#FFFFFF" d="M175.648,122.714c1.416,0.875,2.828,1.736,4.209,2.646c1.39,0.896,2.755,1.826,4.122,2.755
			c1.355,0.945,2.709,1.892,4.04,2.874c1.341,0.968,2.645,1.988,3.957,3.012c-3.031-1.399-5.825-3.203-8.564-5.062
			C180.702,127.035,178.018,125.067,175.648,122.714z"/>
	</g>
	<g>
		<path fill="#FFFFFF" d="M185.939,111.258c1.162,1.267,2.528,2.266,3.896,3.261c1.382,0.977,2.794,1.921,4.209,2.875
			c1.404,0.968,2.819,1.939,4.154,3.034c1.322,1.086,2.646,2.292,3.47,3.822c-1.135-1.291-2.554-2.224-3.937-3.197l-4.249-2.833
			c-1.407-0.972-2.813-1.963-4.126-3.088C188.047,114.018,186.792,112.762,185.939,111.258z"/>
	</g>
	<g>
		<path fill="#FFFFFF" d="M158.333,200.333c-7.621,6.287-14.196,13.743-19.733,21.873c-5.548,8.134-10.164,16.873-14.176,25.867
			c-4.088,8.967-7.585,18.197-11.094,27.421c-3.512,9.223-6.962,18.488-10.997,27.505c1.818-4.591,3.569-9.204,5.24-13.848
			l5.035-13.925c3.361-9.284,6.872-18.529,10.905-27.564c4.104-8.993,8.736-17.798,14.458-25.893
			c2.862-4.041,5.971-7.909,9.358-11.518C150.736,206.665,154.392,203.311,158.333,200.333z"/>
	</g>
	<g>
		<path fill="#FFFFFF" d="M161.666,209c-2.617,2.789-4.543,6.107-6.221,9.512c-1.706,3.399-3.208,6.906-4.999,10.299
			c-0.448,0.847-0.915,1.687-1.409,2.513c-0.502,0.848-1.047,1.604-1.578,2.408l-3.229,4.724c-2.153,3.143-4.273,6.3-6.159,9.589
			c-0.956,1.637-1.858,3.303-2.688,5.005c-0.413,0.852-0.815,1.708-1.192,2.577l-1.187,2.603c-1.541,3.47-2.842,7.044-4.131,10.625
			l-3.723,10.813c-1.285,3.592-2.597,7.181-4.152,10.666c1.345-3.569,2.561-7.18,3.687-10.821c1.157-3.63,2.269-7.278,3.46-10.906
			c1.179-3.632,2.515-7.221,4.025-10.741l1.165-2.609c0.375-0.884,0.776-1.756,1.188-2.623c0.828-1.731,1.726-3.429,2.684-5.09
			c1.934-3.313,4.095-6.475,6.275-9.604l3.264-4.693c1.095-1.565,2.107-3.133,3.027-4.801c1.852-3.31,3.434-6.786,5.238-10.157
			C156.842,214.944,158.884,211.633,161.666,209z"/>
	</g>
	<g>
		<path fill="#FFFFFF" d="M158.333,219c0.483,0.19,0.896,0.494,1.261,0.824c0.373,0.329,0.687,0.708,0.978,1.102
			c0.551,0.805,1.011,1.701,1.094,2.741c-0.786-0.67-1.354-1.401-1.909-2.163C159.223,220.727,158.725,219.954,158.333,219z"/>
	</g>
	<g>
		<path fill="#FFFFFF" d="M151.666,232.333c0.842,0.282,1.436,0.888,1.939,1.465c0.501,0.608,0.877,1.162,1.394,1.868
			c-0.449,0.009-0.872-0.161-1.23-0.392c-0.367-0.229-0.661-0.529-0.928-0.832C152.332,233.807,151.945,233.17,151.666,232.333z"/>
	</g>
	<g>
		<path fill="#FFFFFF" d="M142.333,247c1.254,0.188,2.381,0.704,3.424,1.354c1.021,0.672,1.993,1.509,2.576,2.646
			c-1.132-0.562-2.109-1.173-3.116-1.806C144.228,248.541,143.235,247.895,142.333,247z"/>
	</g>
	<g>
		<path fill="#FFFFFF" d="M137,260.333c1.21,0.954,2.251,1.926,3.453,2.673c1.183,0.775,2.5,1.312,3.88,1.994
			c-1.531,0.099-3.09-0.313-4.419-1.152C138.597,262.992,137.572,261.754,137,260.333z"/>
	</g>
	<g>
		<path fill="#FFFFFF" d="M131.666,271c0.918,0.362,1.634,0.791,2.401,1.187c0.749,0.423,1.532,0.816,2.266,1.48
			c-0.981,0.089-1.899-0.16-2.743-0.602C132.762,272.603,132.023,271.922,131.666,271z"/>
	</g>
	<g>
		<path fill="#FFFFFF" d="M219,80.333c4.045-3.5,8.183-6.893,12.44-10.141c4.255-3.25,8.674-6.294,13.237-9.116
			c4.602-2.753,9.357-5.278,14.319-7.33c2.482-1.02,5.002-1.943,7.558-2.751c2.566-0.776,5.154-1.475,7.779-1.995
			c-5.145,1.461-10.175,3.268-15.033,5.453c-4.858,2.181-9.573,4.675-14.104,7.477c-4.575,2.732-8.961,5.771-13.301,8.878
			C227.556,73.917,223.303,77.155,219,80.333z"/>
	</g>
	<g>
		<path fill="#FFFFFF" d="M154.666,160.668c-0.957,0.152-1.887,0.548-2.521,1.245c-0.64,0.693-0.94,1.625-1.007,2.552
			c-0.143,1.874,0.453,3.761,1.348,5.407c0.92,1.631,2.151,3.145,3.749,4.044c0.793,0.444,1.671,0.716,2.553,0.719
			c0.882,0.009,1.752-0.251,2.532-0.7c1.562-0.893,2.902-2.362,3.521-4.062c0.645-1.711,0.373-3.65-0.518-5.269
			c-0.892-1.628-2.362-2.948-4.065-3.771c-1.694-0.857-3.674-1.174-5.592-0.833c1.874-0.566,3.954-0.36,5.793,0.385
			c1.832,0.775,3.463,2.094,4.53,3.833c1.097,1.715,1.409,3.986,0.71,5.954c-0.697,1.966-2.11,3.571-3.892,4.632
			c-0.91,0.507-1.969,0.811-3.035,0.782c-1.067-0.021-2.097-0.365-2.988-0.883c-1.781-1.06-3.104-2.687-3.979-4.48
			c-0.863-1.792-1.408-3.8-1.152-5.816c0.148-0.992,0.557-1.989,1.304-2.681C152.696,161.022,153.701,160.714,154.666,160.668z"/>
	</g>
	<g>
		<g>
			<path fill="#FFFFFF" d="M156.189,163.229c-0.687,1.878-1.373,3.757-2.06,5.635c-0.179,0.49,1.715,0.254,1.917-0.299
				c0.687-1.878,1.373-3.757,2.06-5.635C158.285,162.44,156.391,162.676,156.189,163.229L156.189,163.229z"/>
		</g>
	</g>
	<g>
		<g>
			<path fill="#FFFFFF" d="M157.384,163.778c1.312,0.652,2.774,1.729,2.122,3.364c0.37-0.206,0.739-0.411,1.108-0.617
				c-0.677,0.074-1.497-0.474-2.125-0.679c-0.44-0.144-0.969-0.022-1.363,0.201c-0.207,0.117-0.635,0.533-0.19,0.678
				c1.165,0.38,2.125,0.901,3.385,0.763c0.375-0.042,0.953-0.229,1.108-0.617c0.766-1.919-0.962-3.21-2.493-3.972
				C158.425,162.645,156.641,163.409,157.384,163.778L157.384,163.778z"/>
		</g>
	</g>
	<g>
		<g>
			<path fill="#FFFFFF" d="M156.281,166.625c0.39,1.042,0.636,2.13,1.025,3.172c0.335,0.898,2.259,0.357,1.932-0.518
				c-0.39-1.042-0.635-2.13-1.025-3.172C157.877,165.209,155.954,165.75,156.281,166.625L156.281,166.625z"/>
		</g>
	</g>
	<g>
		<path fill="#FFFFFF" d="M224.001,91.334c-1.112,0.476-2.189,1.004-3.207,1.636c-1.032,0.603-2.024,1.27-2.979,1.987
			c-1.91,1.434-3.734,2.98-5.498,4.603c-1.779,1.607-3.494,3.291-5.252,4.939c-1.753,1.653-3.502,3.326-5.397,4.835l2.408-2.706
			l2.442-2.67c1.633-1.779,3.341-3.494,5.126-5.137c1.801-1.622,3.68-3.181,5.736-4.494
			C219.424,93.012,221.633,91.881,224.001,91.334z"/>
	</g>
	<path fill="none" stroke="#FFFFFF" stroke-miterlimit="10" d="M201.334,109.667c-2.667-2-4.667-4.667-7.333-6.333"/>
	<g>
		<path fill="#FFFFFF" d="M193.667,102.667c-0.96,1.305-1.99,2.555-3.008,3.815c-1.042,1.239-2.105,2.459-3.172,3.676
			c-2.135,2.434-4.356,4.782-6.519,7.174c-2.181,2.376-4.297,4.801-6.345,7.287c-2.042,2.491-3.966,5.079-5.85,7.713
			c0.758-1.432,1.608-2.812,2.467-4.188c0.886-1.358,1.815-2.688,2.775-3.998c1.921-2.619,4.039-5.086,6.213-7.488
			c2.192-2.387,4.432-4.718,6.696-7.022L193.667,102.667z"/>
	</g>
	<g>
		<path fill="#FFFFFF" d="M168.774,132.333c1.101,1.812,1.929,3.802,3.279,5.422c0.332,0.409,0.678,0.808,1.033,1.199
			c0.362,0.384,0.718,0.803,0.99,1.294c0.532,0.967,0.776,2.064,0.829,3.148c0.089,2.183-0.468,4.318-1.271,6.309
			c-0.827,1.988-1.938,3.868-3.395,5.487c-0.36,0.405-0.763,0.785-1.169,1.143c-0.427,0.383-0.978,0.691-1.572,0.812
			c-1.215,0.237-2.345-0.182-3.324-0.614c-1.961-0.89-3.763-2.093-5.749-2.26c-0.488-0.039-0.973-0.006-1.441,0.106
			c-0.431,0.109-0.877,0.343-1.295,0.613c-0.845,0.549-1.623,1.247-2.354,1.982c-1.455,1.483-2.758,3.148-3.821,4.925
			c-0.516,0.892-1,1.816-1.16,2.756c-0.166,0.951-0.031,1.936,0.294,2.884c0.667,1.906,1.927,3.639,3.005,5.484
			c1.087,1.832,2.083,3.86,2.283,6.093c0.116,1.096-0.019,2.255-0.249,3.278c-0.225,1.085-0.583,2.111-1.014,3.104
			c-1.771,3.957-4.445,7.325-7.066,10.655c-2.646,3.316-5.474,6.501-7.607,10.178c0.946-1.903,2.157-3.664,3.401-5.384
			c1.248-1.72,2.544-3.402,3.816-5.098c2.539-3.376,5.123-6.795,6.743-10.652c0.394-0.96,0.714-1.958,0.897-2.955
			c0.222-1.047,0.321-2.023,0.211-3.042c-0.198-2.025-1.13-3.916-2.212-5.701c-1.067-1.803-2.369-3.527-3.139-5.637
			c-0.376-1.048-0.555-2.234-0.335-3.379c0.216-1.16,0.757-2.143,1.301-3.077c1.128-1.857,2.471-3.549,3.995-5.085
			c0.768-0.763,1.582-1.489,2.521-2.092c0.474-0.297,0.977-0.573,1.578-0.722c0.565-0.132,1.15-0.167,1.72-0.118
			c2.31,0.228,4.153,1.526,6.025,2.372c0.931,0.421,1.912,0.777,2.818,0.605c0.449-0.086,0.862-0.299,1.231-0.615
			c0.396-0.337,0.773-0.679,1.125-1.06c1.413-1.512,2.53-3.316,3.366-5.227c0.816-1.914,1.389-3.977,1.342-6.05
			c-0.019-1.031-0.219-2.064-0.684-2.977c-0.231-0.447-0.549-0.854-0.9-1.256c-0.342-0.408-0.676-0.824-0.996-1.252
			C170.506,136.222,169.77,134.201,168.774,132.333z"/>
	</g>
</g>
<g id="face">
	<path fill="#BC9B89" d="M464,590.5l-5-8c0,0-11.5-3.5-11.5-8.5c-2-4-2-4-2-4s-3-3.088-2.5-6.088s3-14.412,3.5-18.412
		s9.5-15.5,11-18.5s21.5-26.5,21-28.5c-0.267-1.066,38.5-38.5,32.5-41c-3.388-1.411-43.832,27.767-45,28c-2.5,0.5-19,12-23.5,15
		s-23,18-24,19.5s-12,10-13.5,10.5s-12,10-16.5,10c-4.5,1-10,5-16.5,11c-7.5,5.5-16,5-18,4s-29.5-8-30-9.5s-30.5-10.5-32-13.5
		s-16.5-11-20.5-14s-16-14-18-15.5s-9.929-13.316-13-24.5c-1.5-8.5-1.5-28.5-3.5-31c1-5-8.5-13.5-13-14c-3.5-2.5-8.5-6.5-12-3
		s-12.5,11-12.5,11c-8,7-17,14.5-31,9.5c-5-2-19.5-10.5-20.5-11.5c-5-2-28-17-29.5-18c-1.5,5.5-7.5,22-7.5,26.5s-3.5,31-4,34.5
		c1,4.5,3,37.5,5.5,38.25c0.813,4.482,4.04,18.751,4,21.75s-0.997,26.971-3.499,29.985c-0.125,6.031-2.673,26.033-2.673,26.033
		s2.277,23.872,9.979,30.512s23.267,21.077,27.193,23.47s35.108,20.788,39.729,23.055s40.02,17.723,45.164,19.584
		s31.171,11.494,54.139,11.178s30.355-0.654,58.912-9.485C371.063,686.261,385.5,677.5,406,663.5
		c14.948-13.511,27.783-28.624,34.341-36.139s13.403-14.475,18.531-25.668S464,590.5,464,590.5z"/>
	<path fill="#BC9B89" d="M444.333,549.009c0,0-16.667,23.324-24,27.991s-35.873,25.334-47.27,28.667s-43.305,18.001-55.351,20.667
		s-46.046,9.536-52.046,15.435s-21.538,8.279-43,24.731s-43.667,6-17.905,18.196c8.785,4.159,45.534,18.155,58.919,20.223
		c14.253,2.15,54.342,3.501,77.236-5.423s53.105-28.236,59.095-32.116s26.99-24.379,33.656-33.046s34.153-37.163,29.527-42.298
		c-4.987-5.536-18.451-18.374-19.126-21.347S444.333,549.009,444.333,549.009z"/>
	<path fill="#0E0E0F" d="M183,245.5L104.5,301l-5.5,4l-11.5,9c0,0-10,28-9.5,32.5s3.5,8.5,4,13.5s0.5,24.5,4,26
		c2.5,5.5,17.5,23.5,21,27s23.414,16.618,25.617,18.076s33.227,18.765,33.227,18.765S180,458.5,196.5,444.5s18-21,32-7.5
		s7.688,6.418,9.844,23.959S240.567,490.858,253.5,503s37.035,30.17,51.524,36.14s51.083,18.432,54.976,17.469
		s9.678-2.78,20.589-12.194c1.276-0.861,0.534-0.963,17.473-7.938c14.864-11.113,32.886-27.085,33.116-27.271
		s21.171-14.86,26.477-18.232s25.453-16.818,25.453-16.818l16.616-11.8c0,0-3.571-13.354-4.147-15.354s-3.428-4.681-13.315,2.749
		s-33.805,22.456-33.805,22.456l-20.155,12.976l-16.737,10.421c0,0-11.886,13.396-22.475-2.353
		C376.336,485.382,361.7,475.6,355.5,472.5s-48.687-23.731-54.323-26.378S257.5,417.5,249.48,425c-8.48-2-22.257-10.807-25.98-16.5
		s-30.932-27.052-42.245-35.504S136.5,345.5,132.5,343s-21-15.5-21-15.5l16.5-14l57-43C185,270.5,191.5,259.5,183,245.5z"/>
	<path fill="#BC9B89" d="M137,360c0,0-8,20-9,24.5s-8,26.5-8,26.5s21,20,27,19.5c8.5,5,20,13,32,12.5c4.5,2.5,9.5,4.5,18.5-9
		c3.5-5,12-14,9-22S195,391,183,385.5C173.5,377.5,140.16,351.948,137,360z"/>
	<path fill="#BC9B89" d="M379.5,531c0,0,14.5-22.5,0-29c-12-8.5-34-22.5-35.5-22c-2.5-1.5-14-9.5-31.5-18c-6-3.5-36.5-21.5-40-20.5
		c-4-1.5-24.5-11.879-22.5,3.311c-1,6.689-0.274,20.689-0.137,24.689S253,496.5,265.5,503c12,11,29.5,22,36,24
		c5.5,5,37,18.5,43.5,19.5S366.5,557,379.5,531z"/>
	<path fill="#BC9B89" d="M404.5,500l26.5-16.5l25.5-16.5l21.01-13c0,0,14.49-12,16.99-20s0.5-30.191-4.5-32.346
		C489,396,471.5,370.5,466.5,372s-50.5-4-53-12c-9-2.5-26.5-12-44-10.5c-14.5-5-49.075-10.5-51.788-18.5C310,327,301,332,296,315
		c-7.5-5-23.417-17.785-29-17.5c-8.58,0.438-17.52-0.717-25.5-7.5c-7.504-6.378-16.5-16.5-21.5-19.5s-15-5.997-15-22
		c-7.5-4.5-16-11.5-19-13s-8.5,24.5-14,24.5c-5.5,5.5-8.435,8.65-10.5,17.5c-1.945,8.335,0.5,18-0.5,22s-5.5,7.5-7,15.5
		s-6.5,15.5-9,21s-3.5,12.5-3.5,12.5s18.63,10.5,22.065,12.5S205,391,205,391s13.536,10.654,18.5,17.5
		c5.5,7,15.434,15.468,25.729,16.83C260.5,421.5,281,436.647,281,436.647l29.5,13.853l33,16l25,14c0,0,16.5,12.156,19.5,12.328
		S397.389,504.428,404.5,500z"/>
	<path fill="#8C715D" d="M474.667,448c0,0-14.087,10-20.71,12s-15.291,7.75-22.957,10.875S406,486,401.667,489
		S392,496.574,392,496.574s6.152,3.757,6.804,3.926s11.527-0.374,15.695-6.104s21.871-13.768,26.001-16.426
		S465.484,461.92,466.882,461s9.488-6.249,12.934-8.75s5.526-4.033,8.185-6.5S483.09,443.482,474.667,448z"/>
	<path fill="#BC9B89" d="M477.5,498.5c-0.267-1.066,50.5-41.613,25.5-41c0.616-5.5-35.832,27.767-37,28"/>
	<path fill="#8C715D" d="M444.333,549.009c0,0-16.668,23.324-24,27.991c-7.334,4.667-35.873,25.334-47.27,28.667
		s-43.306,18.001-55.352,20.667s-46.046,9.536-52.046,15.435s-21.538,8.279-43,24.731c-11.979,9.184-25.54,10.557-28.808,11.311
		c-2.587,0.596,5.176,4.504,20.476-1.808c9.993-4.122,38.89-23.171,41.079-24.159c14.043-6.338,20.78-4.354,40.587-12.075
		c22.894-8.924,52.01-14.89,58-18.77c5.989-3.88,39.334-14.666,46-23.333s20.56-11.587,27.666-19.334
		c5.037-5.491,10.51-9.027,9.834-12C436.826,563.359,444.333,549.009,444.333,549.009z"/>
	<g>
		<path fill="#614041" d="M243.417,344.754c1.778,2.552,2.385,5.702,2.701,8.732c0.295,3.063,0.233,6.144,0.034,9.203
			c-0.435,6.123-1.477,12.172-2.575,18.178l-0.806,4.506c-0.277,1.554-0.689,3.065-1.167,4.547c-0.961,2.962-2.2,5.819-3.725,8.525
			c-0.748,1.361-1.582,2.677-2.491,3.947c-0.467,0.657-0.912,1.218-1.332,1.829c-0.424,0.612-0.834,1.246-1.245,1.886
			c-1.693,2.506-3.297,5.258-5.743,7.215l-0.138-0.145c0.976-1.165,1.748-2.459,2.467-3.788c0.736-1.318,1.405-2.681,2.099-4.049
			c0.358-0.679,0.724-1.357,1.115-2.034c0.383-0.687,0.847-1.353,1.236-1.957c0.8-1.257,1.532-2.563,2.247-3.878
			c1.387-2.654,2.682-5.369,3.729-8.169c0.519-1.4,0.972-2.821,1.293-4.26l0.962-4.474c1.285-5.955,2.485-11.924,3.125-17.962
			c0.321-3.016,0.506-6.053,0.34-9.077c-0.19-2.996-0.655-6.095-2.295-8.667L243.417,344.754z"/>
	</g>
	<g>
		<path fill="#614041" d="M254.91,423.957c2.094-4.805,4.901-9.274,7.879-13.581c3-4.296,6.246-8.418,9.375-12.579
			c3.129-4.18,6.299-8.431,10.24-12.017c1.964-1.785,4.078-3.45,6.434-4.746c2.332-1.295,4.988-2.222,7.656-2.134l0.013,0.199
			c-2.574,0.437-4.862,1.655-6.949,3.097c-2.083,1.464-3.991,3.178-5.799,4.999c-3.6,3.658-6.983,7.585-10.285,11.627
			c-3.312,4.062-6.699,8.016-9.851,12.163c-3.167,4.128-6.196,8.389-8.532,13.058L254.91,423.957z"/>
	</g>
	<path fill="#8C715D" d="M293.864,381.204c0,0-7.91,4.435-9.326,7.332c-1.416,2.898-7.913,8.991-9.546,12.75
		s-5.007,6.325-7.383,9.984s-6.553,9.051-6.9,9.214c-0.347,0.162-3.237,2.899-2.659-0.209c0.579-3.109,3.224-6.07,4.71-7.96
		c1.486-1.89,8.958-10.913,9.721-12.107c0.762-1.194,6.227-8.199,6.227-8.199l7.196-7.125
		C285.904,384.884,290.869,378.89,293.864,381.204z"/>
	<path fill="#8C715D" d="M76.334,488.67"/>
	<path fill="#FFFEF3" d="M103.5,336.5c-0.5,4.5,12.5,9.124,13.5,10.624S135,359,137,360s-8.753,23.497-8.501,22.708S120,411,120,411
		s-18.5-11.5-22.5-20c-5-8-10.438-18.1-7.219-32.55S95,334,96.5,334S103.5,336.5,103.5,336.5z"/>
	<g>
		<path fill="#FFFFFF" d="M277.666,47.667c19.401-5.83,38.668-12.279,58.582-16.276c4.973-0.987,9.977-1.871,15.031-2.395
			c5.05-0.53,10.13-0.764,15.206-0.748c10.155,0.038,20.299,1.057,30.28,2.91c4.991,0.928,9.943,2.068,14.838,3.422
			c2.445,0.68,4.879,1.409,7.292,2.2c2.407,0.814,4.8,1.578,7.249,2.204c9.782,2.535,19.89,3.752,29.722,6.4
			c2.457,0.662,4.891,1.404,7.283,2.304c2.384,0.905,4.717,1.937,6.998,3.065c4.566,2.252,8.942,4.847,13.267,7.494
			c4.326,2.646,8.605,5.358,12.995,7.859c4.39,2.486,8.923,4.767,13.422,7.091c8.994,4.659,18.051,9.309,26.431,15.113
			c4.198,2.957,7.759,6.62,11.591,9.89c3.791,3.318,8.133,5.911,12.551,8.377c2.207,1.241,4.427,2.475,6.6,3.798
			c2.208,1.277,4.222,2.987,5.965,4.839c3.514,3.731,6.305,7.997,9.568,11.835c0.814,0.96,1.657,1.894,2.544,2.781
			c0.879,0.892,1.835,1.705,2.78,2.561c1.887,1.721,3.669,3.538,5.359,5.443c3.38,3.812,6.342,7.968,9.055,12.259
			c2.717,4.293,5.203,8.716,7.71,13.118c2.534,4.391,4.868,8.913,7.039,13.495c4.352,9.168,8.146,18.576,12.167,27.873
			c2.002,4.653,4.062,9.28,6.284,13.83c2.228,4.546,4.626,9.014,6.902,13.542c4.539,9.03,8.844,18.366,10.624,28.384
			c-1.861-10.003-6.233-19.286-10.842-28.273c-2.312-4.508-4.744-8.953-7.014-13.491c-2.262-4.54-4.363-9.157-6.404-13.797
			c-4.063-9.288-7.872-18.684-12.241-27.817c-2.183-4.571-4.513-9.055-7.057-13.436c-2.52-4.397-5.015-8.805-7.73-13.07
			c-2.712-4.264-5.664-8.38-9.022-12.146c-1.678-1.881-3.453-3.681-5.315-5.37c-0.936-0.842-1.913-1.669-2.816-2.581
			c-0.907-0.902-1.767-1.849-2.594-2.818c-3.31-3.876-6.112-8.127-9.57-11.775c-3.359-3.772-8.014-5.922-12.399-8.455
			c-4.426-2.455-8.851-5.078-12.711-8.438c-3.88-3.296-7.436-6.928-11.55-9.805c-8.314-5.729-17.361-10.339-26.36-14.978
			c-4.498-2.34-9.016-4.627-13.439-7.148c-4.409-2.529-8.687-5.257-12.998-7.911c-8.591-5.31-17.46-10.38-27.287-12.84
			c-9.75-2.657-19.851-3.902-29.694-6.479c-2.46-0.635-4.896-1.42-7.286-2.236c-2.4-0.794-4.821-1.526-7.255-2.21
			c-4.87-1.362-9.801-2.511-14.771-3.45c-19.859-3.742-40.474-4.219-60.301,0.059C316.436,35.697,297.113,41.992,277.666,47.667z"/>
	</g>
</g>
<g id="hair">
	<path fill="#961B1E" d="M406,663.5c2.903-4.147,21.377-17.254,25.5-25.5c3.5-7,20-23,21.5-25.5"/>
	<path fill="#961B1E" d="M406,663.5c2.903-4.147,19.158-18.809,25.5-25.5c6.055-6.389,20-23,21.5-25.5"/>
	<path display="none" fill="#98755C" d="M626.5,290.43c0,0-6.5,30.07-10.5,34.07c-3.5,7.5-13,26.5-15,28.5s-9.458,29.2-13.5,31.708
		c-4.5,2.792,19.27,6.233,16.385,11.763c2.615,5.184,4.953,11.291,1.534,21.16c-0.981,3.019-7.919,15.869,4.412,8.335
		c7.031-4.296,0.669,2.534,9.669-14.966c0.242-9.049-1-13.416,7-22.708c1.123-5.283,1.332-8.292,5.916-16.792
		C633.699,362.494,633,344,633,344l9.5-12c0,0-9.752,6.819-10.376-12.09C630.933,312.512,630,293.859,626.5,290.43z"/>
	<path fill="#251E12" stroke="#251F14" stroke-miterlimit="10" d="M186.21,235.278l19,13c0,0,2.293,23.727,14.79,29.554
		c2-11.534,14.967,5.756,16.21,6.936s31.441,29.495,24.042,21.732c-14.867-15.596,12.164-10.831,28.811,3.224
		c7.147,5.055,11.214,15.232,14.418,16.686c3.204,1.455,15.049,12.418,18.27,17.918c-3.212-13.688,30.889,1.246,34.291,2.116
		s35.999,18.236,25.459,7.39c7.28,1.709,18.046,2.376,24.628,4.661s12.82,6.247,16.081,8.698
		c14.459,10.869,35.501,5.586,40.001,5.086s6.817-1.419,11.471,4.048s10.223,15.214,16.126,25.083
		c2.542,8.448,7.403,27.548,4.903,32.369s-2.19,6.817-4.715,9.283s1.215,2.217,4.715,7.217s-2.776,26.225,9.608,23.187
		c6.892-2.187,0.296-2.704,8.086-13.8c2.75-3.917,11.008-12.391,15.157-17.51s14.627-14.906,19.043-19.972
		s21.583-26.54,21.583-26.54l13.022-14.365c0,0,11.184,0.428,15.092-16.286c7.078-15.534,21.745-43.156,23.152-47.487
		s6.379-23.354,6.817-25.325s-6.774-35.279-20.668-50.84c-8.78-15.341-24.475-44.857-27.8-50.23s-26.526-42.884-29.561-46.357
		s-33.912-36.02-38.723-36.247s-22.455-26.432-49.633-29.33c-15.604-6.573-42.666-22.32-60.922-22.109
		c-14.717-2.534-43.336-9.152-53.25-8.715c-9.913,0.438-36.177,2.374-49.979,9.491c-8.309,3.962-31.417,20.015-37.647,24.314
		c-6.229,4.3-36.186,27.112-43.748,33.279s-28.14,19.172-34.136,36.257c-7,12.278-13.7,23.968-13.605,35.562s1.36,26.89-2.826,40.08
		s-15.565,41.943-15.565,41.943s12.161,17.125,9.136,22.917c3.126,2.49,3.613-5.464,3.613-5.464s-2.843-5.274,5.704-20.864
		c5.547-6.089,9.174-7.089,13.53-19.02C183.162,238.716,183.342,233.316,186.21,235.278z"/>
	<path display="none" fill="#8C715D" d="M249.48,666.999"/>
	<path fill="#524033" d="M180.333,156c0,0-12.227,18.5-11.53,45.5s2.864,16,5.28,23s2.083-60.5,11-63.5S180.333,156,180.333,156z"/>
	<path fill="#524033" d="M435.151,90.15c-6.937,4.911-13.522,15.879-20.021,38.464c-6.247,21.707-12.925,26.073-14.907,37.338
		c-1.852,10.539-2.695,26.576,4.689,6.33c7.388-20.247,18.916-51.268,23.459-56.205c4.54-4.938,11.381-26.902,14.679-27.514
		C446.349,87.951,442.992,84.602,435.151,90.15z"/>
	<path fill="#524033" d="M362.5,80.218C337.5,91,337.161,96,337.331,102s6.98,0,12.575-5s19.845-11.5,20.47-14
		s13.252-10.218,2.688-6.5"/>
	<path fill="#524033" d="M321.75,58C302.5,68.5,300.5,76.936,300,80.218s5.75,5.218,10.875,0S317,76,321.75,67s8.25-13,4.125-11"/>
	<path fill="#524033" d="M255,94c-20.5,15-12.084,10-21.542,23S214.5,144.5,226,135.5s22.46-13,23.48-21s11.468-11.5,8.494-16"/>
	<path fill="#524033" d="M206.606,169.795c-7.399,20.156-6.766,13.561-7.577,28.274c-0.812,14.713-5.833,31.021,0.279,19.612
		c6.112-11.408,8.615-15.327,10.105-23.065c1.49-7.738,9.676-16.397,3.435-20.609"/>
	<path fill="#524033" d="M228,190.504c-3,15.496-4.5,8.391-6,27.943s-8.562,49.052-1.281,27.052s6.281-14.604,9.781-27.052
		s3.5-19.401,3.5-22.924s4.916-11.028-0.542-8.023"/>
	<path fill="#524033" d="M313.067,139.175c-6.148,33.425-6.168,19.583-11.864,49.807c-6.326,33.566-1.654,25.154-1.616,32.357
		c0.057,10.991-2.651,24.429,5.207-3.112s0.556-24.501,4.97-41.029c4.415-16.527,8.229-21.766,6.853-29.259
		c-1.376-7.493,12.073-18.844,3.749-16.301"/>
	<path fill="#524033" d="M375.25,175.5c-12.75,18-8.25,13-14,28.5s-10.663,37.018-3.707,21.009S367,211,371.25,198.5
		s10.5-14,7.25-18.5"/>
	<path fill="#524033" d="M517.194,184.5c-5.956,29.878-6.194,14.609,2.806,35.555s6,58.445,8.5,30.945s7-23,4-36
		s1.5-13.991-5-24.496S529,153.5,520,168.5S518.889,176,517.194,184.5z"/>
	<path fill="#524033" d="M503.5,284.187c5.5,29.082,7.5,51.832,20.5,60.457s12.5,5.457,24.5,10.291s13,3.965,16.5,2.899
		s7.5-2.565,0-8.065s-23.5-3.5-32-13.75s-15.557-15.034-15.778-22.892s-3.722-21.022-5.722-22.94S503.5,284.187,503.5,284.187z"/>
	<path fill="#524033" d="M556,266.5c8.801,22.579,11.008,34.667,17.254,39.333S588.5,313.5,592,315.5s-5-7.5-6-11
		s-16-14.594-16-17.547S563.5,272,563,269.5S553.899,261.111,556,266.5z"/>
	<path fill="#524033" d="M547,186.806c4.794,12.773,4.34,16.194,8.67,19.194s11.33,1.159,7.33-2.92S552,186,551.5,184
		S545.389,182.512,547,186.806z"/>
	<path fill="#524033" d="M378.5,269.5c-0.323,21.003,1.5,34,3,39s2.5-30,4-35s3-13.5,5.5-16.5S378.569,264.991,378.5,269.5z"/>
	<path fill="#524033" d="M441.271,253.304c-0.93,8.179-5.229,24.602-1,33.649S445.5,300,448,302s-2.5-25-2-32.5
		s-0.592-23,2.704-29.5S441.611,250.306,441.271,253.304z"/>
	<path fill="#524033" d="M489.462,177.927c-1.392,10.958-4,20.319-2,30.66s4,16.949,7,22.645s-6.672-24.804-3.836-31.304
		s2.836-24.991,7.336-31.496S490.462,170.055,489.462,177.927z"/>
	<path fill="#524033" d="M280.115,122.402c-6.419,8.989-13.153,15.996-16.293,26.049c-3.14,10.053-4.511,16.82-4.569,23.257
		c-0.058,6.437,5.882-25.003,11.46-29.383c5.578-4.379,14.343-20.661,21.388-24.256
		C299.146,114.475,284.727,115.944,280.115,122.402z"/>
	<path fill="#524033" d="M490.406,107.17c-9.916,19.703-6.214,14.087-9.583,30.271c-3.369,16.186-5.012,38.196-0.526,21.327
		c4.487-16.868,7.258-15.265,9.593-28.259c2.334-12.995,8.289-15.412,4.403-19.376"/>
	<path fill="#524033" d="M289.109,87.337c-9.178,10.095-12.429,11.252-13.123,16.474c-0.693,5.222,4.139,10.61,5.944,5.189
		s10.177-17.582,11.729-18.939C295.21,88.703,292.194,83.944,289.109,87.337z"/>
	<path fill="#524033" d="M243.896,241.043c5.521,20.267,10.882,32.247,13.711,36.633c2.829,4.387-5.929-29.515-5.876-34.734
		s-0.867-13.802,0.702-17.378S242.71,236.692,243.896,241.043z"/>
	<path fill="#524033" d="M282.508,239.438c2.783,24.073,1.851,36.325,6.708,42.424c4.857,6.099,12.802,11.284,15.68,14.107
		c2.878,2.822-2.934-8.523-3.013-12.163s-11.773-18.176-11.024-21.033c0.75-2.856-2.493-16.113-2.342-18.658
		C288.668,241.571,281.844,233.692,282.508,239.438z"/>
	<path fill="#524033" d="M349.05,157.996c0,0-17.023,14.211-24.107,40.275c-7.082,26.064-1.849,16.149-1.543,23.548
		c0.305,7.399,19.362-57.356,28.765-57.67C361.567,163.835,349.05,157.996,349.05,157.996z"/>
	<path fill="#524033" d="M330.861,253.131c-2.72,24.958-5.173,19.95,1.527,38.459s18.45,39.532,11.669,13.354
		s-5.672-26.321-5.182-39.914s4.029-40.559-0.931-27.338C332.984,250.913,331.477,247.484,330.861,253.131z"/>
	<path fill="#524033" d="M373.133,107.688c-17.603,13.074-18.273,34.04-18.312,37.359c-0.039,3.32,6.283-7.965,10.632-13.845
		c4.349-5.879,2.526-3.942,5.979-13.516c3.453-9.573,9.314-15.106,5.508-12.552"/>
	<path fill="#524033" d="M424.51,189.253c-15.365,11.369-29.027,28.245-30.199,36.032c-1.171,7.787-14.16,36.279,0.935,12.485
		c15.094-23.794,19.483-33.989,23.768-37.117C423.296,197.526,431.28,184.243,424.51,189.253z"/>
	<path fill="#524033" d="M432,315.5c-0.873,13.095,6.336,19.5,4.668,25.5s-7.955,23.25-2.062,15.125S446.289,341,443.895,333
		s-3.059-18.784-7.227-22.142S432.5,308,432,315.5z"/>
	<path fill="#524033" d="M596,251.538c5.5,14.462,9.5,21.597,9,26.529s1,38.005,2,11.969s3.5-25.428-5.5-36.732
		s-11.818-15.842-8.659-8.804"/>
	<path fill="#524033" d="M528,278.067c4.5,14.433,9,28.148,13.5,32.791s7,10.642,11.5,11.892s2.5-2.534-4-11.892
		s-10.746-11.709-12.623-18.284s-9.787-23.463-8.377-16.742"/>
	<path fill="#524033" d="M390,319.57c3.5,19.93,7,23.698,5.5,26.314s3.5,1.616,3.5-8.134S398,325,396.5,321s-4.5-9.57-5.5-5.5"/>
	<path fill="#524033" d="M474.772,322.982c0.728,7.518,1.505,13.765,6.116,24.142s6.305,16.544,10.708,19.96
		s14.556,18.75,3.979-0.667s-12.799-25.403-14.688-32.16s-3.213-13.117-3.551-14.687S474.772,322.982,474.772,322.982z"/>
	<path fill="#524033" d="M437.971,207.733c-4.363,6.165-7.859,11.4-11.152,22.268c-3.293,10.867-6.044,16.641-4.944,22.105
		c1.099,5.463-1.242,23.704,3.447,2.096c4.689-21.607,6.92-27.59,9.908-33.938c2.987-6.348,6.143-12.027,6.913-13.436
		S437.971,207.733,437.971,207.733z"/>
	<path fill="#524033" d="M284.735,164.597c-5.524,5.15-10.01,9.567-15.441,19.539c-5.431,9.972-9.296,15.068-9.33,20.641
		c-0.033,5.573-6.028,22.958,2.95,2.753c8.978-20.206,12.378-25.611,16.592-31.221c4.214-5.609,8.457-10.529,9.498-11.751
		C290.045,163.335,284.735,164.597,284.735,164.597z"/>
	<path fill="#524033" d="M251.419,127.089c-5.746,9.434-11.951,16.914-14.349,27.169c-2.398,10.255-3.272,17.104-2.86,23.528
		c0.412,6.424,4.042-25.366,9.285-30.141c5.243-4.774,12.796-21.653,19.561-25.752S255.547,120.312,251.419,127.089z"/>
	<path fill="none" d="M204.5,145c-1.733,6.47-9.998,9.548-13.5,15"/>
	<path fill="#524033" d="M210.5,151c-0.493,8.384-7.148,11.449-11,17.5"/>
	<path fill="#524033" d="M231,152c-2.446,4.688-5.456,9.333-8,14"/>
	<path fill="none" d="M253.5,199c-0.703,3.594-1.326,7.468-3.5,10.5"/>
	<path fill="none" d="M238.5,225c-1.046,2.596-0.877,5.436-2,8"/>
	<path fill="#8B5E3C" d="M252,156c-0.772,3.781-1.567,8.217-3,12"/>
	<path fill="none" d="M252,181.5c0.185,6.365-1.983,12.335-2,18.5"/>
	<path fill="none" d="M242.5,216.5c-1.318,3.703-2.581,7.783-4,11.5"/>
	<path fill="#A97C50" d="M266,217.5c1.306,6.477,0.19,12.578,0.5,19"/>
	<path fill="none" d="M290.5,134.5c0.497,4.045-3.122,7.149-5.5,10"/>
	<path fill="none" stroke="#A97C50" stroke-miterlimit="10" d="M313,120c-0.194,3.133-2.379,5.858-4,8.5"/>
	<path fill="#524033" d="M315,101.5c-2.622,4.827-7.602,7.056-10.5,11.5"/>
	<path fill="none" d="M337.5,121c-1.557,4.777-5.531,9.025-8.5,13"/>
	<path fill="#8B5E3C" d="M342.5,134c-0.208,6.489-3.859,11.141-5.5,17"/>
	<path fill="none" d="M345,124c-0.201,4.278,1.473,7.94,2,12"/>
	<path fill="#754C29" d="M357,246.5c3.547,3.321,1.501,16.366,1.5,21.5"/>
	<path fill="#524033" d="M408.5,277c2.446,3.236,4.01,11.016,4,15.5"/>
	<path fill="#524033" d="M471.955,249.147c4.878,14.953,5.199,7.729,9.321,26.889c4.121,19.161,14.61,47.455,4.996,26.612
		c-9.615-20.842-7.672-13.65-12.56-25.523c-4.889-11.871-5.88-18.754-6.383-22.241c-0.501-3.487-5.946-10.285-0.661-8.011"/>
	<path fill="#524033" d="M456.92,179.154c4.049,15.255-0.396,9.513,6.77,27.767s13.656,47.884,10.628,24.91
		c-3.027-22.975-0.706-15.882-2.977-28.612s-5.299-18.988-6.834-22.16c-1.534-3.172-0.377-12.068-3.981-6.986"/>
	<path fill="#524033" d="M445.691,116.095c-3,15.496-4.5,8.391-6,27.943s-8.562,49.052-1.281,27.052
		c7.281-22,6.281-14.604,9.781-27.052s3.5-19.401,3.5-22.924s4.916-11.028-0.542-8.023"/>
	<path fill="#524033" d="M404.5,66.755c-0.493,8.384-7.148,11.449-11,17.5"/>
	<path fill="#524033" d="M521.408,397.255c-2.373,20.873-5.912,33.519-8.092,38.276c-2.179,4.76,1.305-30.082,0.413-35.239
		s-1.333-13.786-3.505-17.094S521.918,392.775,521.408,397.255z"/>
	<path fill="#524033" d="M557.499,367.876c-12.75,18-8.25,13-14,28.5s-10.663,37.018-3.707,21.009
		c6.957-16.009,9.457-14.009,13.707-26.509s10.5-14,7.25-18.5"/>
</g>
<g id="nose_and_mouth">
	<g>
		<path fill="#614041" d="M193.052,451.156c-0.187,2.025-0.949,4.059-2.308,5.653c-1.338,1.611-3.108,2.797-4.941,3.728
			c-3.703,1.83-7.674,2.858-11.296,4.491c-1.8,0.819-3.535,1.765-4.927,3.056c-0.341,0.316-0.679,0.676-0.957,1.012
			c-0.318,0.399-0.631,0.797-0.891,1.18c-0.546,0.787-1.053,1.632-1.501,2.497c-1.806,3.479-2.748,7.387-3.247,11.314
			c-0.474,3.94-0.479,7.951-0.042,11.908c0.221,1.969,0.614,3.941,1.023,5.916c0.416,1.969,0.89,3.925,1.446,5.856
			c1.109,3.858,2.544,7.649,4.613,11.094c2.062,3.419,4.823,6.517,8.362,8.381l0.127,0.066l0.041,0.164
			c0.118,0.474,0.671,0.987,1.168,1.397c0.521,0.424,1.088,0.807,1.668,1.168c1.166,0.718,2.381,1.371,3.633,1.939
			c1.25,0.566,2.53,1.097,3.821,1.476c1.264,0.354,2.645,0.435,4.006,0.493c1.366,0.045,2.739,0.013,4.086-0.119
			c0.671-0.068,1.338-0.162,1.962-0.32c0.678-0.17,1.334-0.342,1.998-0.529c2.651-0.747,5.292-1.601,7.989-2.346
			c2.683-0.742,5.467-1.432,8.334-1.602c2.858-0.188,5.729,0.066,8.513,0.577c2.777,0.502,5.521,1.273,8.151,1.993
			c2.544,0.651,5.199,0.696,7.484-0.311c1.145-0.491,2.189-1.229,3.125-2.112c0.904-0.876,1.843-1.971,2.68-2.99
			c1.688-2.067,3.106-4.362,3.471-6.846c0.399-2.452-0.469-5.031-1.562-7.474c-1.128-2.445-2.588-4.775-4.09-7.097
			c-0.378-0.579-0.764-1.183-1.122-1.774c-0.37-0.622-0.716-1.245-1.041-1.877c-0.646-1.268-1.216-2.575-1.673-3.92
			c-0.925-2.687-1.48-5.479-1.751-8.276c-0.199-2.749-0.782-5.456-1.033-8.257c-0.251-2.753-0.251-5.749,1.16-8.24l0.177,0.094
			c-1.182,2.515-1.03,5.369-0.633,8.062c0.413,2.713,1.112,5.428,1.427,8.213c0.726,5.444,2.682,10.619,5.886,15.048
			c1.569,2.298,3.132,4.646,4.398,7.216c0.626,1.286,1.185,2.628,1.563,4.057c0.095,0.344,0.182,0.759,0.241,1.079
			c0.071,0.388,0.116,0.759,0.15,1.143c0.058,0.765,0.031,1.536-0.072,2.293c-0.425,3.065-2.062,5.676-3.827,7.899
			c-0.925,1.124-1.794,2.144-2.882,3.201c-1.081,1.019-2.336,1.911-3.747,2.515c-1.405,0.611-2.944,0.916-4.451,0.926
			c-1.513,0.017-2.977-0.221-4.395-0.594c-2.712-0.784-5.31-1.552-7.992-2.078c-2.666-0.527-5.364-0.802-8.053-0.664
			c-2.689,0.104-5.347,0.68-8.024,1.353c-2.67,0.674-5.337,1.458-8.06,2.104c-0.68,0.164-1.373,0.318-2.047,0.46
			c-0.729,0.156-1.445,0.226-2.155,0.272c-1.421,0.086-2.829,0.061-4.236-0.027c-1.401-0.109-2.817-0.229-4.22-0.667
			c-1.36-0.448-2.632-1.028-3.891-1.647c-1.25-0.631-2.49-1.283-3.676-2.043c-0.592-0.38-1.174-0.781-1.725-1.24
			c-0.275-0.229-0.543-0.474-0.79-0.754c-0.24-0.284-0.491-0.589-0.592-1.053l0.167,0.23c-3.63-2.001-6.46-5.156-8.619-8.61
			c-2.172-3.47-3.777-7.259-5.072-11.125c-0.644-1.938-1.204-3.9-1.703-5.877c-0.489-1.974-0.968-3.962-1.28-6.009
			c-0.614-4.075-0.679-8.229-0.191-12.33c0.489-4.095,1.56-8.176,3.515-11.891c0.488-0.931,1.051-1.812,1.676-2.676
			c0.322-0.446,0.644-0.837,0.966-1.223c0.376-0.438,0.744-0.807,1.151-1.172c1.625-1.433,3.519-2.417,5.431-3.189
			c3.832-1.549,7.804-2.418,11.441-4.054c1.811-0.806,3.548-1.818,4.895-3.262c1.355-1.432,2.216-3.298,2.571-5.28L193.052,451.156z
			"/>
	</g>
	<g>
		<path fill="#614041" d="M212.816,529.953c0.359-0.487,0.613-0.736,1-0.936c0.2-0.077,0.47-0.113,0.645-0.264
			c0.177-0.146,0.262-0.373,0.306-0.605c0.061-0.48,0.175-0.888,0.323-1.312c0.192-0.404,0.429-0.812,0.862-1.183l0.097,0.025
			c0.188,0.537,0.168,1.033,0.046,1.516c-0.167,0.46-0.429,0.921-0.861,1.241c-0.208,0.165-0.397,0.321-0.527,0.53
			c-0.137,0.201-0.205,0.493-0.375,0.705c-0.352,0.384-0.948,0.564-1.48,0.375L212.816,529.953z"/>
	</g>
	<g>
		<path fill="#614041" d="M243.333,500.5c-0.226,0.208-0.447,0.334-0.62,0.435c-0.195,0.113-0.397,0.176-0.606,0.236
			c-0.421,0.087-0.916,0.139-1.44-0.171c0.186-0.247,0.371-0.399,0.568-0.525c0.197-0.133,0.412-0.21,0.637-0.274
			c0.231-0.046,0.474-0.074,0.726-0.034C242.875,500.201,243.105,500.295,243.333,500.5z"/>
	</g>
	<g>
		<path fill="#614041" d="M179.175,462.132c0.218,0.607,0.13,1.2-0.093,1.684c-0.134,0.239-0.363,0.454-0.451,0.71
			c-0.101,0.25-0.077,0.538,0.002,0.782c0.18,0.507,0.346,0.943,0.482,1.478c0.092,0.531,0.114,1.173-0.192,1.739l-0.1,0.004
			c-0.342-0.528-0.562-0.959-0.743-1.484c-0.128-0.522-0.221-1.162,0.005-1.753c0.099-0.302,0.201-0.558,0.229-0.838
			c0.03-0.277-0.05-0.588-0.031-0.873c0.086-0.565,0.338-1.012,0.794-1.472L179.175,462.132z"/>
	</g>
	<path fill="#8C715D" d="M240.735,474.193c0,0,2.216,19.963,4.774,22.135s5.321,9.172,6.315,10.922s3.494,9.5,3.494,11
		s-3.25,7.834-4,8.917s-4.29,4.083-5.77,4.333c0,0,1.202-1.527,3.202-4.152s2-2.625,3.25-5.375c1.08-2.376,0.5-8.25-1.25-10.75
		s-5.75-9.25-5.75-9.25s-3-7.082-3.25-7.916s-1.75-8.834-1.75-8.834S237.221,471.164,240.735,474.193z"/>
	<g>
		<path fill="#614041" d="M144.4,532.496c0.163,0.987,0.627,1.943,1.044,2.886c0.443,0.939,0.884,1.88,1.354,2.81
			c0.944,1.857,1.908,3.706,2.88,5.552l1.482,2.757c0.496,0.892,0.968,1.92,1.5,2.664c0.533,0.809,1.13,1.496,1.81,2.314
			c0.672,0.825,1.393,1.823,1.96,2.844l0.414,0.768l0.343,0.667c0.125,0.263,0.218,0.377,0.324,0.568
			c0.092,0.168,0.238,0.37,0.353,0.553c0.493,0.749,1.054,1.471,1.684,2.151c1.258,1.366,2.754,2.587,4.362,3.705
			c3.236,2.23,6.819,4.163,10.539,6.134l1.411,0.765c0.459,0.258,0.91,0.493,1.378,0.771l2.728,1.635l5.338,3.229
			c1.766,1.053,3.505,2.118,5.29,3.057c0.892,0.48,1.775,0.918,2.711,1.362c0.895,0.429,1.817,0.879,2.739,1.28
			c1.845,0.827,3.74,1.516,5.654,2.159c1.92,0.651,3.861,1.146,5.895,1.543c2.047,0.442,4.138,0.845,6.188,1.463
			c2.025,0.622,4.15,1.308,5.809,2.748l-0.179,0.24c-0.827-0.592-1.809-0.966-2.794-1.275c-0.991-0.306-2.006-0.537-3.028-0.735
			c-2.046-0.395-4.118-0.652-6.193-0.912c-4.168-0.468-8.273-1.517-12.196-2.997c-7.931-2.876-14.871-7.744-22.175-11.732
			c-3.657-2.013-7.375-3.987-10.766-6.487c-1.689-1.251-3.298-2.635-4.684-4.234c-0.692-0.799-1.325-1.652-1.871-2.562
			c-0.564-0.902-0.964-1.905-1.393-2.83c-0.85-1.881-2.298-3.44-3.256-5.343c-0.928-1.896-1.765-3.798-2.626-5.709
			c-0.849-1.912-1.68-3.833-2.459-5.776c-0.388-0.973-0.765-1.95-1.107-2.942c-0.322-0.998-0.696-1.984-0.763-3.079L144.4,532.496z"
			/>
	</g>
	<g>
		<path fill="#614041" d="M143.897,529.028c-2.113,11.629-1.551,23.892,2.836,34.793c1.081,2.711,2.385,5.363,3.95,7.792
			c0.787,1.222,1.645,2.399,2.554,3.535c0.469,0.597,0.875,1.07,1.39,1.504c0.504,0.434,1.071,0.805,1.682,1.149
			c1.22,0.685,2.626,1.284,3.964,2.121l3.758,2.412c1.239,0.788,2.48,1.546,3.751,2.186c0.635,0.32,1.276,0.618,1.926,0.864
			l1.019,0.37l1.008,0.325c2.757,0.837,5.64,1.378,8.563,1.978c1.462,0.301,2.938,0.61,4.417,0.992
			c1.434,0.37,2.828,0.698,4.261,0.983c5.684,1.189,11.46,1.513,17.144,0.695c1.413-0.193,2.858-0.46,4.221-0.79
			c1.301-0.327,2.625-0.874,4.005-1.43c1.382-0.552,2.854-1.131,4.451-1.447c1.579-0.34,3.328-0.312,4.881,0.064
			c6.291,1.57,10.465,6.163,16.105,7.978l-0.066,0.293c-5.978-1.092-10.95-5.3-16.438-6.198c-1.36-0.21-2.644-0.138-3.957,0.205
			c-1.306,0.334-2.588,0.911-3.927,1.536c-1.341,0.625-2.751,1.266-4.314,1.731c-1.508,0.426-2.976,0.753-4.496,1.021
			c-3.025,0.513-6.117,0.712-9.185,0.559c-3.068-0.158-6.098-0.644-9.057-1.315c-1.469-0.347-2.952-0.752-4.379-1.175
			c-1.384-0.408-2.803-0.766-4.239-1.105c-2.872-0.679-5.82-1.317-8.724-2.29l-1.102-0.387l-1.064-0.418
			c-0.731-0.3-1.43-0.646-2.111-1.012c-1.364-0.731-2.639-1.558-3.884-2.394l-3.676-2.493c-1.162-0.774-2.484-1.376-3.835-2.175
			c-0.672-0.401-1.344-0.862-1.952-1.413c-0.612-0.538-1.157-1.214-1.588-1.796c-0.917-1.206-1.778-2.453-2.567-3.748
			c-1.585-2.606-2.842-5.344-3.89-8.173c-4.131-11.37-4.238-23.795-1.73-35.386L143.897,529.028z"/>
	</g>
	<g>
		<path fill="#614041" d="M142.765,527.651c1.914,0.917,3.585,2.307,5.13,3.757c1.556,1.45,2.989,3.011,4.523,4.396
			c0.389,0.352,0.754,0.674,1.168,1.023c0.409,0.351,0.825,0.747,1.202,1.132c0.766,0.782,1.466,1.604,2.148,2.415
			c1.362,1.617,2.634,3.242,4.163,4.401c0.375,0.287,0.781,0.556,1.167,0.771c0.457,0.254,0.843,0.437,1.313,0.638
			c0.904,0.39,1.882,0.729,2.915,1.154c1.027,0.424,2.117,0.982,3.069,1.779c0.957,0.771,1.746,1.849,2.286,2.783
			c0.574,0.95,1.069,1.889,1.565,2.807c0.494,0.905,0.997,1.823,1.518,2.541c0.535,0.693,1.17,1.291,1.916,1.759
			c0.739,0.466,1.58,0.799,2.512,1.062c1.843,0.542,4.109,0.825,6.291,1.96c0.533,0.277,1.068,0.625,1.533,0.979
			c0.406,0.302,0.874,0.671,1.293,1.021c0.842,0.703,1.648,1.426,2.415,2.165c1.54,1.472,3.002,2.933,4.573,4.197
			c1.588,1.242,3.31,2.458,5.03,3.591c3.485,2.239,7.132,4.229,11.021,5.736c3.864,1.566,7.994,2.931,11.473,5.38
			c-3.809-1.863-7.886-2.786-11.959-3.99c-4.095-1.212-8.047-2.987-11.755-5.13c-1.867-1.077-3.656-2.203-5.422-3.514
			c-1.759-1.323-3.331-2.798-4.886-4.185c-0.781-0.689-1.542-1.379-2.327-2.014c-0.394-0.32-0.756-0.602-1.198-0.925
			c-0.378-0.278-0.733-0.501-1.136-0.707c-1.586-0.833-3.589-1.067-5.78-1.694c-1.089-0.321-2.229-0.772-3.266-1.445
			c-1.035-0.663-1.948-1.544-2.682-2.53c-0.704-1-1.194-1.947-1.704-2.893c-0.502-0.938-0.973-1.873-1.46-2.744
			c-0.498-0.895-0.96-1.551-1.624-2.14c-0.649-0.582-1.436-1.036-2.34-1.446c-1.811-0.802-4.021-1.57-5.818-3.157
			c-1.75-1.516-3.016-3.312-4.236-5.01c-0.611-0.853-1.218-1.685-1.871-2.462c-0.333-0.395-0.653-0.752-1.018-1.117
			c-0.364-0.362-0.767-0.76-1.121-1.156C148.495,533.672,146.249,530.096,142.765,527.651z"/>
	</g>
</g>
<g id="eyes">
	<path fill="#C5D2D3" d="M201,323.5c0,0-18.5-8.5-26-0.5c-3.5,10-6.5,25.5,1,30s7,10,25,13c8,1,21,4.5,25,4s12.5-14-4-25.5
		c-8,9-21.696,15.948-30.5,4c-7-9.5-3.35-15.887,1.5-21C195.94,324.4,196.5,323,201,323.5z"/>
	<path fill="#284567" d="M201,323.5c-4.25-1-14.699,4.69-12.85,18.595s13.611,15.53,24.194,11.642
		c6.912-4.516,7.66-4.261,9.655-7.237C221.199,338.458,207.883,325.12,201,323.5z"/>
	<path d="M211.5,341.63c0,3.242-2.628,5.87-5.87,5.87l0,0c-3.241,0-6.869-2.628-6.869-5.87v-3.761c0-3.242,3.628-4.87,6.869-4.87
		l0,0c3.242,0,5.87,2.628,5.87,5.87V341.63z"/>
	<path fill="#C5D2D3" d="M350.5,408.5c0,0-21.5-6-31,0s-12,9.209-5,21.354s27.5,26.919,36,27.032s25.826-1.387,35.413-9.387
		C385,439,376.5,423,373,424c-0.5,6.5-2.5,16-10,18s-24.5,3-25.5-18C338,417.5,350.5,408.5,350.5,408.5z"/>
	<path fill="#284567" d="M351.5,409c-7.926,2.116-19.1,11.76-11.8,24.88s25.401,10.513,28.497,4.784s9.197-14.664,0-20.664
		S353.947,408.347,351.5,409z"/>
	<path d="M362,426.301c0,3.866-4.845,7-8.102,7c-3.257,0-5.898-3.134-5.898-7s2.641-7,5.898-7
		C357.155,419.301,362,422.435,362,426.301z"/>
	<ellipse fill="#FFFFFF" cx="353.375" cy="427.688" rx="0.375" ry="0.812"/>
	<ellipse fill="#FFFFFF" cx="355.562" cy="426.969" rx="0.812" ry="0.719"/>
	<ellipse fill="#FFFFFF" cx="205.188" cy="341.5" rx="1.312" ry="0.875"/>
	<ellipse fill="#FFFFFF" cx="205.188" cy="339.312" rx="1.312" ry="0.688"/>
	<g>
		<g>
			<path fill="#6B5042" d="M173.816,325.754c-1.948-0.501-3.836-1.194-5.423-2.461c-0.138-0.11-0.586,0.081-0.448,0.191
				c1.633,1.304,3.573,2.022,5.577,2.539C173.682,326.064,174.093,325.825,173.816,325.754L173.816,325.754z"/>
		</g>
	</g>
	<path fill="#534841" d="M173.604,328.18c0.826-1.578-2.729,2.82-4.729,8.32c0.75,7.109-0.25,9,1.25,13
		c1.335,3.56,1.622,3.188,6.688,10.375c3.812,2.75,10.362,6.751,18.771,8.354c5,1.25,11.546,1.646,16.25,2.521
		c4.552,1.041,7.333,1.167,10.167,1.084c2.417,0.09,9.776-1.167,10.333-4.584c0.415-2.542-0.596-5.375-2.576,0
		c-3.757,2.75-2.257,3.375-9.257,2.625c-2.699-0.775-11.99-2.75-13.37-2.625c-1.314-0.488-8.15-1.445-11.112-2.25
		s-11.143-3.537-12.268-5.581C182.005,357.879,176,353,176,353s-3.988-3.866-4.104-8.312S172.332,330.61,173.604,328.18z"/>
	<path fill="none" stroke="#6B5042" stroke-width="0.25" stroke-miterlimit="10" d="M173.25,357.667
		c-1.168,0.658-2.651,1.731-3.333,2.917"/>
	<path fill="none" stroke="#6B5042" stroke-width="0.25" stroke-miterlimit="10" d="M172.333,356.083
		c-1.078,0.597-2.405,1.344-3.25,2.25"/>
	<path fill="none" stroke="#6B5042" stroke-width="0.25" stroke-miterlimit="10" d="M171.167,355.083
		c-1.258,0.58-2.401,1.381-3.583,2.083"/>
	<path fill="none" stroke="#6B5042" stroke-width="0.25" stroke-miterlimit="10" d="M168,351.667
		c-0.996,0.049-2.437,0.106-3.309,0.659c-0.681,0.431-1.227,1.108-1.941,1.508"/>
	<path fill="none" stroke="#6B5042" stroke-width="0.25" stroke-miterlimit="10" d="M167.583,345.417
		c-1.83,0.478-3.168,1.397-4.5,2.667"/>
	<path fill="none" stroke="#6B5042" stroke-width="0.25" stroke-miterlimit="10" d="M168,343.167
		c-0.742,0.45-2.036,0.493-2.906,0.731c-0.624,0.171-1.211,0.473-1.844,0.602"/>
	<path fill="none" stroke="#6B5042" stroke-width="0.25" stroke-miterlimit="10" d="M167.583,338.583
		c-0.915,0.056-1.873-0.256-2.777-0.256c-0.966,0-2.016,0.145-2.973,0.256"/>
	<path fill="none" stroke="#6B5042" stroke-width="0.25" stroke-miterlimit="10" d="M175.333,360.333
		c-1.315,0.323-2.463,2.149-3.583,2.917"/>
	<path fill="none" stroke="#6B5042" stroke-width="0.25" stroke-miterlimit="10" d="M180.167,363.584
		c-1.088,0.929-2.23,1.923-3.333,2.833"/>
	<path fill="none" stroke="#6B5042" stroke-width="0.25" stroke-miterlimit="10" d="M185.167,366.167
		c-0.514,1.373-1.953,2.093-2.5,3.417"/>
	<path fill="none" stroke="#6B5042" stroke-width="0.25" stroke-miterlimit="10" d="M177.833,362.417
		c-1.081,0.507-1.923,1.366-2.75,2.167"/>
	<path fill="none" stroke="#6B5042" stroke-width="0.25" stroke-miterlimit="10" d="M182.833,365.417
		c-0.342,0.934-1.098,1.686-1.333,2.667"/>
	<path fill="none" stroke="#6B5042" stroke-width="0.25" stroke-miterlimit="10" d="M189.333,367.084
		c-0.595,0.808-0.763,1.982-1.167,2.916"/>
	<path fill="none" stroke="#6B5042" stroke-width="0.25" stroke-miterlimit="10" d="M192.083,368.084c0,1.164-0.119,2.349-0.083,3.5
		"/>
	<path fill="none" stroke="#6B5042" stroke-width="0.25" stroke-miterlimit="10" d="M195.5,369.084
		c0.028,0.933-0.18,1.834-0.25,2.75"/>
	<path fill="none" stroke="#6B5042" stroke-width="0.25" stroke-miterlimit="10" d="M233.333,372.75
		c1.163,0.294,2.917,1.031,3.917,1.667"/>
	<path fill="none" stroke="#6B5042" stroke-width="0.25" stroke-miterlimit="10" d="M234.083,368.834
		c1.078,0.041,2.34,0.982,3.333,1.416"/>
	<path fill="none" stroke="#6B5042" stroke-width="0.25" stroke-miterlimit="10" d="M234,363.667c1.952,0.039,3.521,1.982,5.333,2"
		/>
	<path fill="none" stroke="#6B5042" stroke-width="0.25" stroke-miterlimit="10" d="M233.833,359.667
		c1.392,0.446,2.536,1.386,3.833,2"/>
	<path fill="none" stroke="#6B5042" stroke-width="0.25" stroke-miterlimit="10" d="M231.25,353
		c1.503,0.001,2.905-0.706,4.417-0.667"/>
	<path fill="none" stroke="#6B5042" stroke-width="0.25" stroke-miterlimit="10" d="M185.083,304.833
		c-0.94,0.026-2.815-1.06-3.772-1.413c-0.763-0.281-1.281-0.777-1.728-1.421"/>
	<path fill="none" stroke="#6B5042" stroke-width="0.25" stroke-miterlimit="10" d="M175.833,297.417
		c-1.142-0.135-2.303-0.869-3.442-1.155c-1.588-0.398-3.444-0.855-5.058-0.929"/>
	<path fill="none" stroke="#6B5042" stroke-width="0.25" stroke-miterlimit="10" d="M174.083,295.833
		c0.619,0.226,1.084,0.8,1.632,1.162c0.746,0.493,1.587,0.83,2.368,1.254"/>
	<path fill="none" stroke="#6B5042" stroke-width="0.25" stroke-miterlimit="10" d="M177.083,299.333
		c-1.497-0.993-2.561-2.665-4.25-3.417"/>
	<path fill="none" stroke="#6B5042" stroke-width="0.25" stroke-miterlimit="10" d="M181,300.083
		c-1.364-1.137-2.686-2.302-3.917-3.583"/>
	<path fill="none" stroke="#6B5042" stroke-width="0.25" stroke-miterlimit="10" d="M177.667,300.25
		c-0.801-1.027-2.13-1.962-3.25-2.667"/>
	<path fill="none" stroke="#6B5042" stroke-width="0.25" stroke-miterlimit="10" d="M180.333,300.583
		c-1.083-0.544-2.245-1.032-3.418-1.347c-0.65-0.175-1.501-0.073-2.082-0.403"/>
	<path fill="none" stroke="#6B5042" stroke-width="0.25" stroke-miterlimit="10" d="M182,300.167
		c-0.78-0.769-2.847-1.077-3.921-1.42c-0.993-0.318-2.025-0.71-2.996-0.997"/>
	<path fill="none" stroke="#6B5042" stroke-width="0.25" stroke-miterlimit="10" d="M174.75,299.917
		c-0.81-0.926-3.212-1.836-4.5-1.917"/>
	<path fill="none" stroke="#6B5042" stroke-width="0.25" stroke-miterlimit="10" d="M178.167,300.083
		c-1.503-0.698-2.476-2.001-4-2.667"/>
	<path fill="none" stroke="#6B5042" stroke-width="0.25" stroke-miterlimit="10" d="M174.333,299.083
		c-1.101-0.657-2.5-1.711-3.833-1.917"/>
	<path fill="none" stroke="#6B5042" stroke-width="0.25" stroke-miterlimit="10" d="M190,305.833
		c-1.075-0.626-2.534-1.613-3.25-2.667"/>
	<path fill="none" stroke="#6B5042" stroke-width="0.25" stroke-miterlimit="10" d="M182.417,296.5
		c-1.141-0.896-2.799-1.97-4.25-2.167"/>
	<path fill="none" stroke="#6B5042" stroke-width="0.25" stroke-miterlimit="10" d="M176.167,295.25
		c-0.716-0.218-1.646-0.667-2.417-0.583"/>
	<path fill="none" stroke="#6B5042" stroke-width="0.25" stroke-miterlimit="10" d="M166.5,293.667
		c-0.77-0.566-3.115-1.175-4.083-1.083"/>
	<path fill="none" stroke="#6B5042" stroke-width="0.25" stroke-miterlimit="10" d="M164.333,295.083
		c-0.883-0.092-1.624-0.619-2.417-0.917"/>
	<path fill="none" stroke="#6B5042" stroke-width="0.25" stroke-miterlimit="10" d="M167.333,299.167
		c-0.855-0.649-2.244-1.855-3.333-2"/>
	<path fill="#534841" d="M310.497,420.5c0,0-1.379,2.25-1.188,3.25s3.441,7.602,4.941,9.551S320,440.75,321,441.5
		s6.75,6.25,8.5,7.25s4.661,4.25,7.831,5.5S349,458,350.5,458.75s8.498-0.25,9.499,0s5.751-0.965,9.251-1.857s7.5-1.393,8.75-2.143
		s5.25-1.75,6-2.75s-1.97-1.732-3.498-0.999s-8.785,4.618-10.269,3.684s-8.264,1.562-10.234,1.744s-10.07,0.471-10.826,0.33
		s-9.164-3.626-9.164-3.626l-8.175-5.327c0,0-8.334-6.771-8.334-8.038c-1.526-0.49-7.131-6.896-8.065-8.404
		s-4.301-8.671-4.301-8.671L310.497,420.5z"/>
	<path fill="none" stroke="#614041" stroke-width="0.25" stroke-miterlimit="10" d="M326.75,451.25
		c-0.729,0.176-1.396,0.663-1.75,1.25"/>
	<path fill="none" stroke="#614041" stroke-width="0.25" stroke-miterlimit="10" d="M330.75,452.25c-0.387,0.664-1.011,1.493-1.5,2"
		/>
	<path fill="none" stroke="#614041" stroke-width="0.25" stroke-miterlimit="10" d="M333.25,454.5c-0.809,0.692-1.974,1.387-2.75,2"
		/>
	<path fill="none" stroke="#614041" stroke-width="0.25" stroke-miterlimit="10" d="M338.25,461.75c0.148-1.254,0.767-2.304,1-3.5"
		/>
	<path fill="none" stroke="#614041" stroke-width="0.25" stroke-miterlimit="10" d="M343,459.5c-0.027,0.88-0.292,1.75-0.75,2.5"/>
	<path fill="none" stroke="#614041" stroke-width="0.25" stroke-miterlimit="10" d="M347,460.5c-0.148,0.936-0.648,1.755-1.25,2.5"
		/>
	<path fill="none" stroke="#614041" stroke-width="0.25" stroke-miterlimit="10" d="M354.75,462.5
		c-0.225,1.767,0.542,3.117,0.75,4.75"/>
	<path fill="none" stroke="#614041" stroke-width="0.25" stroke-miterlimit="10" d="M360.25,463.25
		c0.061,1.761-0.554,3.441-0.5,5.25"/>
	<path fill="none" stroke="#614041" stroke-width="0.25" stroke-miterlimit="10" d="M370.75,463c0.602,1.438,2.008,2.56,2.75,4"/>
	<path fill="none" stroke="#614041" stroke-width="0.25" stroke-miterlimit="10" d="M375.5,460.5c1.151,0.633,1.529,2.519,3,3.25"/>
	<path fill="none" stroke="#614041" stroke-width="0.25" stroke-miterlimit="10" d="M381.75,459c1.479,0.911,2.449,2.859,3.75,4"/>
	<path fill="none" stroke="#614041" stroke-width="0.25" stroke-miterlimit="10" d="M388,456.75c1.221,0.305,2.304,1.684,3,2.75"/>
	<path fill="none" stroke="#614041" stroke-width="0.25" stroke-miterlimit="10" d="M321.75,445.75
		c-0.756,0.759-1.755,1.592-2.5,2.25"/>
	<path fill="none" stroke="#614041" stroke-width="0.25" stroke-miterlimit="10" d="M333.5,403.25c-0.595,0.498-1.325,1.046-2,1.5"
		/>
	<path fill="none" stroke="#614041" stroke-width="0.25" stroke-miterlimit="10" d="M338.5,403.75
		c-1.022,0.729-1.574,1.968-2.5,2.75"/>
	<path fill="none" stroke="#614041" stroke-width="0.25" stroke-miterlimit="10" d="M341.75,404.75
		c0.031,1.169-0.788,1.975-1.5,2.75"/>
	<path fill="none" stroke="#614041" stroke-width="0.25" stroke-miterlimit="10" d="M347.25,408.25c0.668-0.494,1.132-1.22,1.25-2"
		/>
	<path fill="none" stroke="#614041" stroke-width="0.25" stroke-miterlimit="10" d="M351.75,407c-0.203,0.709-0.689,1.466-1.25,2"/>
	<path fill="none" stroke="#614041" stroke-width="0.25" stroke-miterlimit="10" d="M357,411c0.453-0.477,0.634-1.238,0.5-2"/>
	<path fill="none" stroke="#614041" stroke-width="0.25" stroke-miterlimit="10" d="M361.25,411c-0.319,0.82-0.843,1.672-1.25,2.5"
		/>
	<path fill="none" stroke="#614041" stroke-width="0.25" stroke-miterlimit="10" d="M364,413c-0.233,0.943-0.957,1.712-1.5,2.5"/>
	<path fill="none" stroke="#614041" stroke-width="0.25" stroke-miterlimit="10" d="M359.75,411.25
		c-0.251,0.357-0.528,0.819-0.75,1.25"/>
	<path fill="none" stroke="#614041" stroke-width="0.25" stroke-miterlimit="10" d="M364.75,414c0.107,0.617,0.025,1.238-0.25,1.75"
		/>
	<path fill="none" stroke="#614041" stroke-width="0.25" stroke-miterlimit="10" d="M372,421.5c0.38-0.375,0.643-0.799,0.75-1.25"/>
	<path fill="none" stroke="#614041" stroke-width="0.25" stroke-miterlimit="10" d="M334.75,404.25
		c-0.652,0.419-1.198,1.049-1.5,1.75"/>
	<path fill="none" stroke="#614041" stroke-width="0.25" stroke-miterlimit="10" d="M372,416.75c-1.006-2.039-2.569-3.819-3.25-6"/>
	<path fill="none" stroke="#614041" stroke-width="0.25" stroke-miterlimit="10" d="M365.748,406.594
		c1.903,3.559,4.99,6.539,6.004,10.562"/>
	<path fill="none" stroke="#614041" stroke-width="0.25" stroke-miterlimit="10" d="M377.25,420.5c-1.435-2.221-3.279-4.242-3.5-7"
		/>
	<path fill="none" stroke="#614041" stroke-width="0.25" stroke-miterlimit="10" d="M378.5,414.5c0.643,2.184,1.457,4.55,3,6.25"/>
	<path fill="none" stroke="#614041" stroke-width="0.25" stroke-miterlimit="10" d="M371.25,410.25c1.019,2.128,2.547,4.137,4,6"/>
	<path fill="none" stroke="#614041" stroke-width="0.25" stroke-miterlimit="10" d="M366.5,411.875
		c-1.706-2.217-2.617-5.326-4.5-7.25"/>
	<path fill="none" stroke="#614041" stroke-width="0.25" stroke-miterlimit="10" d="M389.25,430.25c0.292,0.638,0.548,1.321,0.75,2"
		/>
	<path fill="none" stroke="#614041" stroke-width="0.25" stroke-miterlimit="10" d="M385.75,427c0.203,0.57,0.37,1.157,0.5,1.75"/>
	<path fill="none" stroke="#614041" stroke-width="0.25" stroke-miterlimit="10" d="M190.25,315.5c-1.261,0.917-2.68,1.698-4,2.5"/>
	<path fill="none" stroke="#614041" stroke-width="0.25" stroke-miterlimit="10" d="M194.25,317.5c-0.775,0.591-1.621,1.075-2.5,1.5
		"/>
	<path fill="none" stroke="#614041" stroke-width="0.25" stroke-miterlimit="10" d="M201.5,321c-1.167,0-2.333,0-3.5,0"/>
	<path fill="none" stroke="#614041" stroke-width="0.25" stroke-miterlimit="10" d="M204.75,322.75
		c-1.201,0.497-2.719,0.64-3.75,1.25"/>
	<path fill="none" stroke="#614041" stroke-width="0.25" stroke-miterlimit="10" d="M208.25,329.75c1.027-0.281,2.083-0.366,2.75-1"
		/>
	<path fill="none" stroke="#614041" stroke-width="0.25" stroke-miterlimit="10" d="M213.5,334.25c0.733,0.05,1.343-0.175,1.5-0.75"
		/>
	<path fill="none" stroke="#614041" stroke-width="0.25" stroke-miterlimit="10" d="M215.25,337.75
		c1.051-0.574,2.379-0.669,3.25-1.25"/>
	<path fill="none" stroke="#614041" stroke-width="0.25" stroke-miterlimit="10" d="M219.5,340.75c-0.263,0.224-0.77,0.424-1.25,0.5
		"/>
	<path fill="none" stroke="#614041" stroke-width="0.25" stroke-miterlimit="10" d="M233.75,359.75
		c-1.098-0.137-2.117-0.593-3.25-0.5"/>
	<path fill="none" stroke="#614041" stroke-width="0.25" stroke-miterlimit="10" d="M224,349c1.344,0.01,2.643,0.347,4,0.25"/>
	<path fill="#534841" d="M404.668,435.594c0.207,3.156,2.5,3.853,2.5,3.853s2,3,1,0s-0.939-6.705,0.279-3.853
		c1.221,2.853,3.053,7.519,2.387,3.853s-1-4.299,1.5-0.732s7,7.193,3.5,3.597s-4.334-7.329-1.334-3.597s7,6.399,4,2.899
		s-3.998-6.132-0.832-2.899s6.332,4.898,3.166,1.732s-4.834-6.5-1.334-3s0.834-1.194,3.668,1.736
		c2.832,2.931,1.998,2.158,3.666,3.128c1.666,0.97-0.834-2.363,1.666,0.97s5.666,5.196,1.834,0.515c-3.834-4.682-5.834-7.48-3-5.081
		s7.5,5.518,4,1.875s2.166-0.643-0.834-2.976s-4.5-3.753-2.166-3.043s1.832-1.829,4.25,1.023c2.416,2.853,5.25,6.888,3.584,3.12
		c-1.668-3.768-3-7.666-2-6.467s1.666,3.699,1,1.199c-0.668-2.5-2.502-6.834-1.334-5.75c1.166,1.084,4.5,4.916,1.666,0
		c-2.832-4.916,0.168-5.749-2.332-5.916s-5.168-2.166-3.668,0s-2.998-3.668,0.168-2.584s8.5,2.666,4.5,0.625
		s-0.334-2.209-1.834-2.625s-1.668-1.917-4-1.25c-2.334,0.667-5.627-3.905-3.459-1.071c2.166,2.834-4.541-3.263-2.207-2.429
		c2.332,0.834,7.834,2.166,3.5,0.5s11,3,4.832-0.25c-6.166-3.25,1.834-2.25-5.666-5.25s-4.377-1.914-7.5-4.5
		c-3.709-3.071,0.791,8.929-1.5,4.5c-2.236-4.324,1,3.333-2.166-0.5c-3.168-3.833-2.504-3.749-2,1
		c0.457,4.304,0.748,4.607-2.043,0.554c-0.883-1.281-0.844-1.624-1.627-2.998c-0.998-1.752,0.729-2.532,0.752-3.502
		c0.068-2.983-0.438-4.492-1.916-1.423c-2.666,5.536-1.166,0.869-1.834-4.631c-0.666-5.5-5.141-8.011-2.5-3.166
		c2.643,4.845-5-4.489-4.666-2.578s-3-1.755-2.5,1.578s-3.334-6.333-2.334,0.5s-4-12.001-4,2.666s-2.832-19-3.332,1
		s-1.752-14-2.209-5.5c-1.959-2.166-3.459-6.833-3.375-2.333s-3.994-7.334-2.123,1.333c1.873,8.667-5.295-14.832-2.627,0.834
		c2.666,15.666-6.5-20.396-4.25-5.531c-2.584-1.469-5.418-8.47-4-1.303c-3.084,0.667-7.25-8.666-5.416-2.166
		c0,0-5.374-6.5-3.187-0.667c2.187,5.833-10.481-14.333-2.147,1c8.334,15.333-8.5-11.166-3.5,1.667c-3.333-1.5-6-6.001-5.25-2.834
		s-3.583-4.5-2-0.333s-4.25-4.167-2.25,1s-3.5-4.999-2.25-0.333s-5.083-10.001-2.25-0.334s-5.998-9.5-3.249-1.333
		s-7.084-9.333-3.501,0.5s-13.417-16.333-4.25-0.5c-5.667-3.5-8.833-6.333-7.25-2s-7.333-4-0.875,4
		c-4.208-1.5-8.375-8.334-5.375-2.167s-8.333-8.5-1.25,2.667c-4.083-2.667-10.25-4.5-4.75-1s-9.356-3.499-2.178,0.667
		s-12.989-1.834-3.822,2.666s-9.833-2.832-3.167,0.834s-5.833,1.666,2,3.666s-4.007,2,3.163,3.5c-0.163,2,0.504,0.166,3.67,1.5
		s-1.742,2.167,3.545,0.667s4.454-2.166,6.288-0.833s-5.333,0.166-0.667,1.333s2.5-0.667,5.917,0.333s2.917,1.834,5.5,1.834
		s2.417-0.668,5.5,0.666s9.25-0.5,4.25,1.667s7.5-1.239,4.5,1.464s5.667-1.536,2.75,0s4.333-2.203,1.625,0s3.458-0.465,0.375,0.869
		s6.459,1,3.521,1.75s2.395-1.084,1.729,0.5s3.176,0.166,1.254,1.375c-1.921,1.209,5.6-0.837,4.246,0s3.5,0.375,2,1.375
		c-1.5,1,5.75-0.834,3.875,0s4.418,1.416,2.688,1.625c-1.729,0.209,5.77,1.708,4.188,1.625c-1.584-0.083,5.418-0.645,3.584,0.553
		s6.582,0.697,2.791,1.447s4.207,1.25,2.375,1.75c-1.834,0.5,1.166,3.583,3.25,0.375s2.082,5.958,1.75-0.875
		c-0.334-6.833,6.166,12.166,1.166,2.75s1.064,9.621,0.668,3.5s3.166,9.25,2.832,2.25c-0.332-7,2.5,8.666,2.5,2.5
		s5.168,10.208,4,2.688c-1.166-7.521,3.502,10.872,3.168,3.676s3.332,6.696,2.832,0s1.502,8.238,2.168,1.938
		S404.594,434.47,404.668,435.594z"/>
	<path fill="#534841" d="M211.627,324.239c2.359,1.861,3.312,3.538,5.414,4.283c2.102,0.745,3.549,4.476,5.346,4.768
		c1.796,0.292,0.592,1.818,2.936,1.416c2.344-0.402-3.57,0.68,0.724,0.799c4.293,0.12-4.089,1.612,2.914,2.296
		c7.003,0.684-4.483,2.543,2.893,3.183c7.376,0.64-8.269,2.454,5.265,3.013c13.534,0.559-5.895,2.308,0.212,1.796
		c6.107-0.511,5.646-1.002,5.248-2.885c-0.399-1.883,3.384-1.826-0.64-2.862c-4.024-1.035,5.293-3.142-1.235-3.001
		c-6.529,0.142,7.104-2.727-2.908-3.307c-10.012-0.581,10.171-2.333-3.17-3.401c-13.343-1.069,14.235-2.03-5.915-3.19
		c-20.15-1.16,12.884,0.381,4.097-0.483c-0.674-1.445,2.524-2.074-0.842-1.802c-3.367,0.271-0.088-0.745-2.133-1.007
		c-2.044-0.262-1.212-1.745-2.688-1.444c-1.475,0.299-0.044-2.513-0.854-1.913c-0.811,0.599-0.468,0.305-1.994,0.171
		c-1.526-0.134-0.263-1.164-1.783-1.236c-1.519-0.073,1.701-1.585-1.168-1.373c-2.87,0.213,0.927-1.746-0.936-1.526
		s1.876-2.235-0.95-1.65c-2.826,0.585,3.439-1.791-1.417-1.343s12.596-3.123,1.993-1.242c-10.603,1.881,11.986-5.191-4.742-1.832
		c-16.728,3.358,13.061-5.527-5.568-1.272c0.266-4.144,16.757-6.257,1.455-2.605c-15.303,3.652,8.694-7.283-7.024-2.024
		c1.387-4.149,13.722-8.416,4.349-5.716c-9.374,2.7,7.386-3.312-11.733,0.126c-2.711,0.488,12.076-5.747,1.678-4.268
		c1.487-6.595,2.409-6.133-2.376-0.882c-2.175-4.623,1.379-9.699-4.088-3.768c-1.732-5.082,2.941-9.913-3.699-3.969
		c-0.802-4.311,3.871-11.282-1.667-3.454c-5.537,7.828,6.524-19.084-6.319,0.494c-2.589-5.232-1.732-11.124-3.651-1.08
		c-1.919,10.044-8.596-15.6-2.376-0.223c6.22,15.376-4.257-4.784-1.352,4.188c-2.48,0.67-6.045,2.098-2.243,3.034
		c3.802,0.936-4.838,3.088,0.366,3.104c5.204,0.015-8.235,2.695,1.245,3.42c9.481,0.726-9.739,2.113,1.427,1.802
		c-3.395,2.163-4.073,3.525,0.027,2.714c4.1-0.81-3.78,3.172,1.106,2.265c4.886-0.907-1.456,2.947,2.065,1.859
		c3.522-1.087,0.483,0.53,2.518,1.423c2.035,0.893-2.796,2.26,1.456,1.674s-1.096,4.577,3.353,1.031
		c4.448-3.546-1.326,2.633,1.945,1.197c3.271-1.436-0.839,2.492,2.483,1.134c1.388,2.521,0.104,3.725,2.659,1.198
		c2.555-2.527,1.499,4.52,3.243,1.168c1.744-3.353,1.273,6.521,2.68,0.312c1.885,3.176,2.524,5.366,4.822,2.452
		c2.297-2.915,0.059,4.776,2.087,0.635c0.914,2.41,1.418,3.483,2.652,2.205c1.234-1.279-1.459,2.563,1.899,1.161
		c3.359-1.403-0.203,2.541,1.571,1.577c1.774-0.965-0.356,4.447,2.082,1.642s-1.305,4.937,0.566,1.066s-0.613,4.855,2.134,1.51
		s0.062,3.769,1.112-0.131c1.05-3.9,0.418,4.607,1.513,1.08"/>
</g>
</svg>
